<mxfile host="65bd71144e">
    <diagram id="o-qSaWjqNzQpxFa_QKC-" name="useCaseDigrame">
        <mxGraphModel dx="806" dy="682" grid="1" gridSize="10" guides="1" tooltips="1" connect="1" arrows="1" fold="1" page="1" pageScale="1" pageWidth="1100" pageHeight="850" math="0" shadow="0">
            <root>
                <mxCell id="0"/>
                <mxCell id="1" parent="0"/>
                <mxCell id="58" value="" style="rounded=0;whiteSpace=wrap;html=1;" parent="1" vertex="1">
                    <mxGeometry x="130" width="630" height="850" as="geometry"/>
                </mxCell>
                <mxCell id="30" value="" style="edgeStyle=none;html=1;" parent="1" source="3" target="29" edge="1">
                    <mxGeometry relative="1" as="geometry"/>
                </mxCell>
                <mxCell id="39" style="edgeStyle=none;html=1;entryX=0.045;entryY=0.691;entryDx=0;entryDy=0;entryPerimeter=0;" parent="1" source="3" target="16" edge="1">
                    <mxGeometry relative="1" as="geometry"/>
                </mxCell>
                <mxCell id="45" style="edgeStyle=none;html=1;entryX=0.042;entryY=0.275;entryDx=0;entryDy=0;entryPerimeter=0;" parent="1" source="3" target="44" edge="1">
                    <mxGeometry relative="1" as="geometry"/>
                </mxCell>
                <mxCell id="3" value="Customer" style="shape=umlActor;verticalLabelPosition=bottom;verticalAlign=top;html=1;outlineConnect=0;" parent="1" vertex="1">
                    <mxGeometry x="80" y="350" width="30" height="60" as="geometry"/>
                </mxCell>
                <mxCell id="5" value="HomeScreen" style="ellipse;whiteSpace=wrap;html=1;" parent="1" vertex="1">
                    <mxGeometry x="365" y="10" width="90" height="60" as="geometry"/>
                </mxCell>
                <mxCell id="40" style="edgeStyle=none;html=1;entryX=0.362;entryY=1.048;entryDx=0;entryDy=0;entryPerimeter=0;" parent="1" source="9" target="10" edge="1">
                    <mxGeometry relative="1" as="geometry"/>
                </mxCell>
                <mxCell id="9" value="CartScreen" style="ellipse;whiteSpace=wrap;html=1;" parent="1" vertex="1">
                    <mxGeometry x="300" y="280" width="90" height="60" as="geometry"/>
                </mxCell>
                <mxCell id="35" style="edgeStyle=none;html=1;entryX=0.5;entryY=0;entryDx=0;entryDy=0;" parent="1" source="10" target="16" edge="1">
                    <mxGeometry relative="1" as="geometry"/>
                </mxCell>
                <mxCell id="38" style="edgeStyle=none;html=1;" parent="1" source="10" target="3" edge="1">
                    <mxGeometry relative="1" as="geometry"/>
                </mxCell>
                <mxCell id="10" value="LoginScreen" style="ellipse;whiteSpace=wrap;html=1;" parent="1" vertex="1">
                    <mxGeometry x="590" y="70" width="90" height="60" as="geometry"/>
                </mxCell>
                <mxCell id="11" value="OrderScreen" style="ellipse;whiteSpace=wrap;html=1;" parent="1" vertex="1">
                    <mxGeometry x="610" y="530" width="90" height="60" as="geometry"/>
                </mxCell>
                <mxCell id="42" style="edgeStyle=none;html=1;" parent="1" source="12" target="13" edge="1">
                    <mxGeometry relative="1" as="geometry"/>
                </mxCell>
                <mxCell id="12" value="PaymentScreen" style="ellipse;whiteSpace=wrap;html=1;" parent="1" vertex="1">
                    <mxGeometry x="590" y="360" width="90" height="60" as="geometry"/>
                </mxCell>
                <mxCell id="43" style="edgeStyle=none;html=1;" parent="1" source="13" target="11" edge="1">
                    <mxGeometry relative="1" as="geometry"/>
                </mxCell>
                <mxCell id="13" value="PlaceOrderScreen" style="ellipse;whiteSpace=wrap;html=1;" parent="1" vertex="1">
                    <mxGeometry x="470" y="430" width="110" height="70" as="geometry"/>
                </mxCell>
                <mxCell id="14" value="ProductScreen" style="ellipse;whiteSpace=wrap;html=1;" parent="1" vertex="1">
                    <mxGeometry x="350" y="110" width="90" height="60" as="geometry"/>
                </mxCell>
                <mxCell id="41" style="edgeStyle=none;html=1;entryX=0.5;entryY=0;entryDx=0;entryDy=0;" parent="1" source="16" target="12" edge="1">
                    <mxGeometry relative="1" as="geometry"/>
                </mxCell>
                <mxCell id="16" value="ShippingScreen" style="ellipse;whiteSpace=wrap;html=1;" parent="1" vertex="1">
                    <mxGeometry x="590" y="280" width="90" height="60" as="geometry"/>
                </mxCell>
                <mxCell id="20" style="edgeStyle=none;html=1;" parent="1" source="19" target="5" edge="1">
                    <mxGeometry relative="1" as="geometry"/>
                </mxCell>
                <mxCell id="21" style="edgeStyle=none;html=1;" parent="1" source="19" target="14" edge="1">
                    <mxGeometry relative="1" as="geometry"/>
                </mxCell>
                <mxCell id="22" style="edgeStyle=none;html=1;entryX=0;entryY=1;entryDx=0;entryDy=0;" parent="1" source="19" target="9" edge="1">
                    <mxGeometry relative="1" as="geometry"/>
                </mxCell>
                <mxCell id="23" style="edgeStyle=none;html=1;" parent="1" source="19" target="10" edge="1">
                    <mxGeometry relative="1" as="geometry"/>
                </mxCell>
                <mxCell id="24" style="edgeStyle=none;html=1;entryX=0;entryY=0.5;entryDx=0;entryDy=0;" parent="1" source="19" target="15" edge="1">
                    <mxGeometry relative="1" as="geometry"/>
                </mxCell>
                <mxCell id="28" style="edgeStyle=none;html=1;entryX=0.5;entryY=0;entryDx=0;entryDy=0;entryPerimeter=0;" parent="1" source="19" target="3" edge="1">
                    <mxGeometry relative="1" as="geometry"/>
                </mxCell>
                <mxCell id="19" value="Guest" style="shape=umlActor;verticalLabelPosition=bottom;verticalAlign=top;html=1;outlineConnect=0;" parent="1" vertex="1">
                    <mxGeometry x="80" y="40" width="30" height="60" as="geometry"/>
                </mxCell>
                <mxCell id="52" style="edgeStyle=none;html=1;" parent="1" source="29" target="46" edge="1">
                    <mxGeometry relative="1" as="geometry"/>
                </mxCell>
                <mxCell id="54" style="edgeStyle=none;html=1;" parent="1" source="29" target="47" edge="1">
                    <mxGeometry relative="1" as="geometry"/>
                </mxCell>
                <mxCell id="55" style="edgeStyle=none;html=1;entryX=0.056;entryY=0.333;entryDx=0;entryDy=0;entryPerimeter=0;" parent="1" source="29" target="48" edge="1">
                    <mxGeometry relative="1" as="geometry"/>
                </mxCell>
                <mxCell id="29" value="Admin" style="shape=umlActor;verticalLabelPosition=bottom;verticalAlign=top;html=1;outlineConnect=0;" parent="1" vertex="1">
                    <mxGeometry x="80" y="570" width="30" height="60" as="geometry"/>
                </mxCell>
                <mxCell id="15" value="RegisterScreen" style="ellipse;whiteSpace=wrap;html=1;" parent="1" vertex="1">
                    <mxGeometry x="260" y="170" width="90" height="60" as="geometry"/>
                </mxCell>
                <mxCell id="44" value="ProfileScreen" style="ellipse;whiteSpace=wrap;html=1;" parent="1" vertex="1">
                    <mxGeometry x="320" y="410" width="90" height="60" as="geometry"/>
                </mxCell>
                <mxCell id="53" style="edgeStyle=none;html=1;" parent="1" source="46" target="11" edge="1">
                    <mxGeometry relative="1" as="geometry"/>
                </mxCell>
                <mxCell id="46" value="OrderListScreen" style="ellipse;whiteSpace=wrap;html=1;" parent="1" vertex="1">
                    <mxGeometry x="270" y="520" width="90" height="60" as="geometry"/>
                </mxCell>
                <mxCell id="56" style="edgeStyle=none;html=1;" parent="1" source="47" target="49" edge="1">
                    <mxGeometry relative="1" as="geometry"/>
                </mxCell>
                <mxCell id="60" value="" style="edgeStyle=none;html=1;" parent="1" source="47" target="49" edge="1">
                    <mxGeometry relative="1" as="geometry"/>
                </mxCell>
                <mxCell id="47" value="ProductListScreen" style="ellipse;whiteSpace=wrap;html=1;" parent="1" vertex="1">
                    <mxGeometry x="260" y="620" width="120" height="70" as="geometry"/>
                </mxCell>
                <mxCell id="57" style="edgeStyle=none;html=1;entryX=0;entryY=0.5;entryDx=0;entryDy=0;" parent="1" source="48" target="51" edge="1">
                    <mxGeometry relative="1" as="geometry"/>
                </mxCell>
                <mxCell id="48" value="UserListScreen" style="ellipse;whiteSpace=wrap;html=1;" parent="1" vertex="1">
                    <mxGeometry x="275" y="750" width="90" height="60" as="geometry"/>
                </mxCell>
                <mxCell id="49" value="ProductEditScreen" style="ellipse;whiteSpace=wrap;html=1;" parent="1" vertex="1">
                    <mxGeometry x="590" y="640" width="120" height="60" as="geometry"/>
                </mxCell>
                <mxCell id="51" value="UserEditScreen" style="ellipse;whiteSpace=wrap;html=1;" parent="1" vertex="1">
                    <mxGeometry x="610" y="750" width="90" height="60" as="geometry"/>
                </mxCell>
            </root>
        </mxGraphModel>
    </diagram>
    <diagram id="Hj8gQSd-K6rhKHerQXJG" name="ERD">
        <mxGraphModel dx="1167" dy="546" grid="0" gridSize="10" guides="1" tooltips="1" connect="1" arrows="1" fold="1" page="0" pageScale="1" pageWidth="1100" pageHeight="850" math="0" shadow="0">
            <root>
                <mxCell id="0"/>
                <mxCell id="1" parent="0"/>
                <mxCell id="fAdK-hwoPHin2EZhHgNO-1" value="Orders" style="rounded=1;whiteSpace=wrap;html=1;" parent="1" vertex="1">
                    <mxGeometry x="160" y="480" width="120" height="60" as="geometry"/>
                </mxCell>
                <mxCell id="fAdK-hwoPHin2EZhHgNO-137" style="edgeStyle=none;html=1;entryX=0.75;entryY=0;entryDx=0;entryDy=0;startArrow=none;rounded=1;" parent="1" source="fAdK-hwoPHin2EZhHgNO-138" target="fAdK-hwoPHin2EZhHgNO-121" edge="1">
                    <mxGeometry relative="1" as="geometry"/>
                </mxCell>
                <mxCell id="U7l_WnDoAh4-SHKEOXsp-10" value="1:M" style="edgeLabel;html=1;align=center;verticalAlign=middle;resizable=0;points=[];fontSize=25;fontColor=#00FF00;rounded=1;" vertex="1" connectable="0" parent="fAdK-hwoPHin2EZhHgNO-137">
                    <mxGeometry x="-0.0116" relative="1" as="geometry">
                        <mxPoint x="-1" as="offset"/>
                    </mxGeometry>
                </mxCell>
                <mxCell id="fAdK-hwoPHin2EZhHgNO-2" value="Products" style="rounded=1;whiteSpace=wrap;html=1;" parent="1" vertex="1">
                    <mxGeometry x="680" y="120" width="120" height="60" as="geometry"/>
                </mxCell>
                <mxCell id="fAdK-hwoPHin2EZhHgNO-18" style="edgeStyle=none;html=1;entryX=0;entryY=0.5;entryDx=0;entryDy=0;startArrow=none;rounded=1;" parent="1" source="fAdK-hwoPHin2EZhHgNO-19" target="fAdK-hwoPHin2EZhHgNO-2" edge="1">
                    <mxGeometry relative="1" as="geometry"/>
                </mxCell>
                <mxCell id="U7l_WnDoAh4-SHKEOXsp-4" value="0:M" style="edgeLabel;html=1;align=center;verticalAlign=middle;resizable=0;points=[];fontSize=25;fontColor=#00FF00;rounded=1;" vertex="1" connectable="0" parent="fAdK-hwoPHin2EZhHgNO-18">
                    <mxGeometry x="-0.0481" y="1" relative="1" as="geometry">
                        <mxPoint x="-1" as="offset"/>
                    </mxGeometry>
                </mxCell>
                <mxCell id="fAdK-hwoPHin2EZhHgNO-115" style="edgeStyle=none;html=1;startArrow=none;rounded=1;" parent="1" source="fAdK-hwoPHin2EZhHgNO-116" target="fAdK-hwoPHin2EZhHgNO-1" edge="1">
                    <mxGeometry relative="1" as="geometry"/>
                </mxCell>
                <mxCell id="U7l_WnDoAh4-SHKEOXsp-8" value="0:M" style="edgeLabel;html=1;align=center;verticalAlign=middle;resizable=0;points=[];fontSize=25;fontColor=#00FF00;rounded=1;" vertex="1" connectable="0" parent="fAdK-hwoPHin2EZhHgNO-115">
                    <mxGeometry x="-0.336" relative="1" as="geometry">
                        <mxPoint x="-1" y="38" as="offset"/>
                    </mxGeometry>
                </mxCell>
                <mxCell id="fAdK-hwoPHin2EZhHgNO-3" value="Users" style="rounded=1;whiteSpace=wrap;html=1;" parent="1" vertex="1">
                    <mxGeometry x="160" y="120" width="120" height="60" as="geometry"/>
                </mxCell>
                <mxCell id="fAdK-hwoPHin2EZhHgNO-10" style="edgeStyle=none;html=1;entryX=0;entryY=0.5;entryDx=0;entryDy=0;rounded=1;" parent="1" source="fAdK-hwoPHin2EZhHgNO-4" target="fAdK-hwoPHin2EZhHgNO-3" edge="1">
                    <mxGeometry relative="1" as="geometry"/>
                </mxCell>
                <mxCell id="fAdK-hwoPHin2EZhHgNO-4" value="Name" style="ellipse;whiteSpace=wrap;html=1;rounded=1;" parent="1" vertex="1">
                    <mxGeometry x="70" y="30" width="80" height="40" as="geometry"/>
                </mxCell>
                <mxCell id="fAdK-hwoPHin2EZhHgNO-11" style="edgeStyle=none;html=1;entryX=0.596;entryY=-0.031;entryDx=0;entryDy=0;entryPerimeter=0;rounded=1;" parent="1" source="fAdK-hwoPHin2EZhHgNO-5" target="fAdK-hwoPHin2EZhHgNO-3" edge="1">
                    <mxGeometry relative="1" as="geometry"/>
                </mxCell>
                <mxCell id="fAdK-hwoPHin2EZhHgNO-5" value="Email" style="ellipse;whiteSpace=wrap;html=1;rounded=1;" parent="1" vertex="1">
                    <mxGeometry x="190" y="30" width="80" height="40" as="geometry"/>
                </mxCell>
                <mxCell id="fAdK-hwoPHin2EZhHgNO-12" style="edgeStyle=none;html=1;rounded=1;" parent="1" source="fAdK-hwoPHin2EZhHgNO-6" target="fAdK-hwoPHin2EZhHgNO-3" edge="1">
                    <mxGeometry relative="1" as="geometry"/>
                </mxCell>
                <mxCell id="fAdK-hwoPHin2EZhHgNO-6" value="Password" style="ellipse;whiteSpace=wrap;html=1;rounded=1;" parent="1" vertex="1">
                    <mxGeometry x="310" y="20" width="80" height="40" as="geometry"/>
                </mxCell>
                <mxCell id="U7l_WnDoAh4-SHKEOXsp-1" style="edgeStyle=none;html=1;entryX=0.095;entryY=1.005;entryDx=0;entryDy=0;entryPerimeter=0;rounded=1;" edge="1" parent="1" source="fAdK-hwoPHin2EZhHgNO-7" target="fAdK-hwoPHin2EZhHgNO-3">
                    <mxGeometry relative="1" as="geometry"/>
                </mxCell>
                <mxCell id="fAdK-hwoPHin2EZhHgNO-7" value="isAdmin" style="ellipse;whiteSpace=wrap;html=1;rounded=1;" parent="1" vertex="1">
                    <mxGeometry x="50" y="210" width="80" height="40" as="geometry"/>
                </mxCell>
                <mxCell id="fAdK-hwoPHin2EZhHgNO-9" style="edgeStyle=none;html=1;entryX=-0.004;entryY=0.619;entryDx=0;entryDy=0;entryPerimeter=0;rounded=1;" parent="1" source="fAdK-hwoPHin2EZhHgNO-8" target="fAdK-hwoPHin2EZhHgNO-3" edge="1">
                    <mxGeometry relative="1" as="geometry"/>
                </mxCell>
                <mxCell id="fAdK-hwoPHin2EZhHgNO-8" value="_id" style="ellipse;whiteSpace=wrap;html=1;fillColor=#a20025;fontColor=#ffffff;strokeColor=#6F0000;rounded=1;" parent="1" vertex="1">
                    <mxGeometry x="20" y="140" width="80" height="40" as="geometry"/>
                </mxCell>
                <mxCell id="fAdK-hwoPHin2EZhHgNO-16" style="edgeStyle=none;html=1;entryX=0;entryY=0.25;entryDx=0;entryDy=0;rounded=1;" parent="1" source="fAdK-hwoPHin2EZhHgNO-14" target="fAdK-hwoPHin2EZhHgNO-2" edge="1">
                    <mxGeometry relative="1" as="geometry"/>
                </mxCell>
                <mxCell id="fAdK-hwoPHin2EZhHgNO-14" value="_id" style="ellipse;whiteSpace=wrap;html=1;fillColor=#a20025;fontColor=#ffffff;strokeColor=#6F0000;rounded=1;" parent="1" vertex="1">
                    <mxGeometry x="560" y="40" width="80" height="40" as="geometry"/>
                </mxCell>
                <mxCell id="fAdK-hwoPHin2EZhHgNO-17" style="edgeStyle=none;html=1;rounded=1;" parent="1" source="fAdK-hwoPHin2EZhHgNO-15" target="fAdK-hwoPHin2EZhHgNO-2" edge="1">
                    <mxGeometry relative="1" as="geometry"/>
                </mxCell>
                <mxCell id="fAdK-hwoPHin2EZhHgNO-15" value="user" style="ellipse;whiteSpace=wrap;html=1;fillColor=#6a00ff;fontColor=#ffffff;strokeColor=#3700CC;rounded=1;" parent="1" vertex="1">
                    <mxGeometry x="700" y="20" width="80" height="40" as="geometry"/>
                </mxCell>
                <mxCell id="fAdK-hwoPHin2EZhHgNO-20" value="" style="edgeStyle=none;html=1;entryX=0;entryY=0.5;entryDx=0;entryDy=0;endArrow=none;rounded=1;" parent="1" source="fAdK-hwoPHin2EZhHgNO-3" target="fAdK-hwoPHin2EZhHgNO-19" edge="1">
                    <mxGeometry relative="1" as="geometry">
                        <mxPoint x="280" y="150" as="sourcePoint"/>
                        <mxPoint x="680" y="150" as="targetPoint"/>
                    </mxGeometry>
                </mxCell>
                <mxCell id="U7l_WnDoAh4-SHKEOXsp-3" value="&lt;font style=&quot;font-size: 25px;&quot;&gt;1:1&lt;/font&gt;" style="edgeLabel;html=1;align=center;verticalAlign=middle;resizable=0;points=[];fontSize=12;fontColor=#00FF00;rounded=1;" vertex="1" connectable="0" parent="fAdK-hwoPHin2EZhHgNO-20">
                    <mxGeometry x="-0.0593" y="-2" relative="1" as="geometry">
                        <mxPoint x="-1" as="offset"/>
                    </mxGeometry>
                </mxCell>
                <mxCell id="fAdK-hwoPHin2EZhHgNO-19" value="isAdmin" style="rhombus;whiteSpace=wrap;html=1;fillColor=#fff2cc;gradientColor=#ffd966;strokeColor=#d6b656;fontColor=#0a0000;rounded=1;" parent="1" vertex="1">
                    <mxGeometry x="450" y="110" width="80" height="80" as="geometry"/>
                </mxCell>
                <mxCell id="fAdK-hwoPHin2EZhHgNO-22" style="edgeStyle=none;html=1;rounded=1;" parent="1" source="fAdK-hwoPHin2EZhHgNO-21" target="fAdK-hwoPHin2EZhHgNO-2" edge="1">
                    <mxGeometry relative="1" as="geometry"/>
                </mxCell>
                <mxCell id="fAdK-hwoPHin2EZhHgNO-21" value="name" style="ellipse;whiteSpace=wrap;html=1;rounded=1;" parent="1" vertex="1">
                    <mxGeometry x="840" y="30" width="80" height="40" as="geometry"/>
                </mxCell>
                <mxCell id="fAdK-hwoPHin2EZhHgNO-24" style="edgeStyle=none;html=1;rounded=1;" parent="1" source="fAdK-hwoPHin2EZhHgNO-23" target="fAdK-hwoPHin2EZhHgNO-2" edge="1">
                    <mxGeometry relative="1" as="geometry"/>
                </mxCell>
                <mxCell id="fAdK-hwoPHin2EZhHgNO-23" value="image" style="ellipse;whiteSpace=wrap;html=1;rounded=1;" parent="1" vertex="1">
                    <mxGeometry x="860" y="80" width="80" height="40" as="geometry"/>
                </mxCell>
                <mxCell id="fAdK-hwoPHin2EZhHgNO-26" style="edgeStyle=none;html=1;rounded=1;" parent="1" source="fAdK-hwoPHin2EZhHgNO-25" target="fAdK-hwoPHin2EZhHgNO-2" edge="1">
                    <mxGeometry relative="1" as="geometry"/>
                </mxCell>
                <mxCell id="fAdK-hwoPHin2EZhHgNO-25" value="Category" style="ellipse;whiteSpace=wrap;html=1;rounded=1;" parent="1" vertex="1">
                    <mxGeometry x="870" y="140" width="80" height="40" as="geometry"/>
                </mxCell>
                <mxCell id="fAdK-hwoPHin2EZhHgNO-32" style="edgeStyle=none;html=1;entryX=0.913;entryY=1.053;entryDx=0;entryDy=0;entryPerimeter=0;rounded=1;" parent="1" source="fAdK-hwoPHin2EZhHgNO-27" target="fAdK-hwoPHin2EZhHgNO-2" edge="1">
                    <mxGeometry relative="1" as="geometry"/>
                </mxCell>
                <mxCell id="fAdK-hwoPHin2EZhHgNO-27" value="description" style="ellipse;whiteSpace=wrap;html=1;rounded=1;" parent="1" vertex="1">
                    <mxGeometry x="870" y="200" width="80" height="40" as="geometry"/>
                </mxCell>
                <mxCell id="fAdK-hwoPHin2EZhHgNO-33" style="edgeStyle=none;html=1;entryX=0.75;entryY=1;entryDx=0;entryDy=0;rounded=1;" parent="1" source="fAdK-hwoPHin2EZhHgNO-28" target="fAdK-hwoPHin2EZhHgNO-2" edge="1">
                    <mxGeometry relative="1" as="geometry"/>
                </mxCell>
                <mxCell id="fAdK-hwoPHin2EZhHgNO-28" value="rating" style="ellipse;whiteSpace=wrap;html=1;rounded=1;" parent="1" vertex="1">
                    <mxGeometry x="870" y="270" width="80" height="40" as="geometry"/>
                </mxCell>
                <mxCell id="fAdK-hwoPHin2EZhHgNO-34" style="edgeStyle=none;html=1;entryX=0.5;entryY=1;entryDx=0;entryDy=0;rounded=1;" parent="1" source="fAdK-hwoPHin2EZhHgNO-29" target="fAdK-hwoPHin2EZhHgNO-2" edge="1">
                    <mxGeometry relative="1" as="geometry"/>
                </mxCell>
                <mxCell id="fAdK-hwoPHin2EZhHgNO-29" value="numReviews" style="ellipse;whiteSpace=wrap;html=1;rounded=1;" parent="1" vertex="1">
                    <mxGeometry x="800" y="310" width="80" height="40" as="geometry"/>
                </mxCell>
                <mxCell id="fAdK-hwoPHin2EZhHgNO-36" style="edgeStyle=none;html=1;entryX=0.079;entryY=1.019;entryDx=0;entryDy=0;entryPerimeter=0;rounded=1;" parent="1" source="fAdK-hwoPHin2EZhHgNO-30" target="fAdK-hwoPHin2EZhHgNO-2" edge="1">
                    <mxGeometry relative="1" as="geometry"/>
                </mxCell>
                <mxCell id="fAdK-hwoPHin2EZhHgNO-30" value="price" style="ellipse;whiteSpace=wrap;html=1;rounded=1;" parent="1" vertex="1">
                    <mxGeometry x="540" y="240" width="80" height="40" as="geometry"/>
                </mxCell>
                <mxCell id="fAdK-hwoPHin2EZhHgNO-35" style="edgeStyle=none;html=1;entryX=0;entryY=0.75;entryDx=0;entryDy=0;rounded=1;" parent="1" source="fAdK-hwoPHin2EZhHgNO-31" target="fAdK-hwoPHin2EZhHgNO-2" edge="1">
                    <mxGeometry relative="1" as="geometry"/>
                </mxCell>
                <mxCell id="fAdK-hwoPHin2EZhHgNO-31" value="countInStock" style="ellipse;whiteSpace=wrap;html=1;rounded=1;" parent="1" vertex="1">
                    <mxGeometry x="520" y="180" width="80" height="40" as="geometry"/>
                </mxCell>
                <mxCell id="fAdK-hwoPHin2EZhHgNO-64" style="edgeStyle=none;html=1;entryX=0.384;entryY=1.001;entryDx=0;entryDy=0;entryPerimeter=0;rounded=1;" parent="1" source="fAdK-hwoPHin2EZhHgNO-44" target="fAdK-hwoPHin2EZhHgNO-2" edge="1">
                    <mxGeometry relative="1" as="geometry"/>
                </mxCell>
                <mxCell id="fAdK-hwoPHin2EZhHgNO-77" style="edgeStyle=none;html=1;rounded=1;" parent="1" source="fAdK-hwoPHin2EZhHgNO-44" target="fAdK-hwoPHin2EZhHgNO-70" edge="1">
                    <mxGeometry relative="1" as="geometry"/>
                </mxCell>
                <mxCell id="fAdK-hwoPHin2EZhHgNO-44" value="Reviews" style="ellipse;whiteSpace=wrap;html=1;rounded=1;" parent="1" vertex="1">
                    <mxGeometry x="700" y="360" width="80" height="40" as="geometry"/>
                </mxCell>
                <mxCell id="fAdK-hwoPHin2EZhHgNO-74" style="edgeStyle=none;html=1;rounded=1;" parent="1" source="fAdK-hwoPHin2EZhHgNO-46" target="fAdK-hwoPHin2EZhHgNO-70" edge="1">
                    <mxGeometry relative="1" as="geometry"/>
                </mxCell>
                <mxCell id="fAdK-hwoPHin2EZhHgNO-46" value="user" style="ellipse;whiteSpace=wrap;html=1;fillColor=#6a00ff;fontColor=#ffffff;strokeColor=#3700CC;rounded=1;" parent="1" vertex="1">
                    <mxGeometry x="690" y="610" width="80" height="40" as="geometry"/>
                </mxCell>
                <mxCell id="fAdK-hwoPHin2EZhHgNO-73" style="edgeStyle=none;html=1;rounded=1;" parent="1" source="fAdK-hwoPHin2EZhHgNO-54" target="fAdK-hwoPHin2EZhHgNO-70" edge="1">
                    <mxGeometry relative="1" as="geometry"/>
                </mxCell>
                <mxCell id="fAdK-hwoPHin2EZhHgNO-54" value="name" style="ellipse;whiteSpace=wrap;html=1;rounded=1;" parent="1" vertex="1">
                    <mxGeometry x="820" y="610" width="80" height="40" as="geometry"/>
                </mxCell>
                <mxCell id="fAdK-hwoPHin2EZhHgNO-72" style="edgeStyle=none;html=1;rounded=1;" parent="1" source="fAdK-hwoPHin2EZhHgNO-55" target="fAdK-hwoPHin2EZhHgNO-70" edge="1">
                    <mxGeometry relative="1" as="geometry"/>
                </mxCell>
                <mxCell id="fAdK-hwoPHin2EZhHgNO-55" value="rating" style="ellipse;whiteSpace=wrap;html=1;rounded=1;" parent="1" vertex="1">
                    <mxGeometry x="860" y="550" width="80" height="40" as="geometry"/>
                </mxCell>
                <mxCell id="fAdK-hwoPHin2EZhHgNO-71" style="edgeStyle=none;html=1;rounded=1;" parent="1" source="fAdK-hwoPHin2EZhHgNO-56" target="fAdK-hwoPHin2EZhHgNO-70" edge="1">
                    <mxGeometry relative="1" as="geometry"/>
                </mxCell>
                <mxCell id="fAdK-hwoPHin2EZhHgNO-56" value="Comment" style="ellipse;whiteSpace=wrap;html=1;rounded=1;" parent="1" vertex="1">
                    <mxGeometry x="850" y="460" width="80" height="40" as="geometry"/>
                </mxCell>
                <mxCell id="fAdK-hwoPHin2EZhHgNO-75" style="edgeStyle=none;html=1;entryX=0;entryY=0.75;entryDx=0;entryDy=0;rounded=1;" parent="1" source="fAdK-hwoPHin2EZhHgNO-61" target="fAdK-hwoPHin2EZhHgNO-70" edge="1">
                    <mxGeometry relative="1" as="geometry"/>
                </mxCell>
                <mxCell id="fAdK-hwoPHin2EZhHgNO-61" value="_id" style="ellipse;whiteSpace=wrap;html=1;fillColor=#a20025;fontColor=#ffffff;strokeColor=#6F0000;rounded=1;" parent="1" vertex="1">
                    <mxGeometry x="810" y="390" width="80" height="40" as="geometry"/>
                </mxCell>
                <mxCell id="fAdK-hwoPHin2EZhHgNO-78" style="edgeStyle=none;html=1;entryX=1;entryY=1;entryDx=0;entryDy=0;rounded=1;" parent="1" source="fAdK-hwoPHin2EZhHgNO-50" target="fAdK-hwoPHin2EZhHgNO-3" edge="1">
                    <mxGeometry relative="1" as="geometry"/>
                </mxCell>
                <mxCell id="U7l_WnDoAh4-SHKEOXsp-11" value="1:1" style="edgeLabel;html=1;align=center;verticalAlign=middle;resizable=0;points=[];fontSize=25;fontColor=#00FF00;rounded=1;" vertex="1" connectable="0" parent="fAdK-hwoPHin2EZhHgNO-78">
                    <mxGeometry x="-0.0489" relative="1" as="geometry">
                        <mxPoint x="-2" as="offset"/>
                    </mxGeometry>
                </mxCell>
                <mxCell id="fAdK-hwoPHin2EZhHgNO-50" value="Add Review" style="rhombus;whiteSpace=wrap;html=1;fillColor=#fff2cc;gradientColor=#ffd966;strokeColor=#d6b656;fontColor=#0a0000;rounded=1;" parent="1" vertex="1">
                    <mxGeometry x="420" y="260" width="80" height="80" as="geometry"/>
                </mxCell>
                <mxCell id="fAdK-hwoPHin2EZhHgNO-76" style="edgeStyle=none;html=1;entryX=1;entryY=1;entryDx=0;entryDy=0;rounded=1;" parent="1" source="fAdK-hwoPHin2EZhHgNO-70" target="fAdK-hwoPHin2EZhHgNO-50" edge="1">
                    <mxGeometry relative="1" as="geometry"/>
                </mxCell>
                <mxCell id="U7l_WnDoAh4-SHKEOXsp-12" value="0:1" style="edgeLabel;html=1;align=center;verticalAlign=middle;resizable=0;points=[];fontSize=25;fontColor=#00FF00;rounded=1;" vertex="1" connectable="0" parent="fAdK-hwoPHin2EZhHgNO-76">
                    <mxGeometry x="-0.2878" y="4" relative="1" as="geometry">
                        <mxPoint x="6" y="-4" as="offset"/>
                    </mxGeometry>
                </mxCell>
                <mxCell id="fAdK-hwoPHin2EZhHgNO-70" value="Review" style="rounded=1;whiteSpace=wrap;html=1;" parent="1" vertex="1">
                    <mxGeometry x="710" y="460" width="90" height="40" as="geometry"/>
                </mxCell>
                <mxCell id="fAdK-hwoPHin2EZhHgNO-80" style="edgeStyle=none;html=1;rounded=1;" parent="1" source="fAdK-hwoPHin2EZhHgNO-79" target="fAdK-hwoPHin2EZhHgNO-1" edge="1">
                    <mxGeometry relative="1" as="geometry"/>
                </mxCell>
                <mxCell id="fAdK-hwoPHin2EZhHgNO-79" value="_id" style="ellipse;whiteSpace=wrap;html=1;fillColor=#a20025;fontColor=#ffffff;strokeColor=#6F0000;rounded=1;" parent="1" vertex="1">
                    <mxGeometry y="490" width="80" height="40" as="geometry"/>
                </mxCell>
                <mxCell id="fAdK-hwoPHin2EZhHgNO-85" style="edgeStyle=none;html=1;entryX=0.25;entryY=0;entryDx=0;entryDy=0;rounded=1;" parent="1" source="fAdK-hwoPHin2EZhHgNO-82" target="fAdK-hwoPHin2EZhHgNO-1" edge="1">
                    <mxGeometry relative="1" as="geometry"/>
                </mxCell>
                <mxCell id="fAdK-hwoPHin2EZhHgNO-82" value="user" style="ellipse;whiteSpace=wrap;html=1;fillColor=#6a00ff;fontColor=#ffffff;strokeColor=#3700CC;rounded=1;" parent="1" vertex="1">
                    <mxGeometry x="15" y="405" width="80" height="40" as="geometry"/>
                </mxCell>
                <mxCell id="fAdK-hwoPHin2EZhHgNO-86" style="edgeStyle=none;html=1;entryX=0.25;entryY=1;entryDx=0;entryDy=0;rounded=1;" parent="1" source="fAdK-hwoPHin2EZhHgNO-84" target="fAdK-hwoPHin2EZhHgNO-1" edge="1">
                    <mxGeometry relative="1" as="geometry"/>
                </mxCell>
                <mxCell id="fAdK-hwoPHin2EZhHgNO-84" value="paymentMethod" style="ellipse;whiteSpace=wrap;html=1;rounded=1;" parent="1" vertex="1">
                    <mxGeometry y="560" width="110" height="60" as="geometry"/>
                </mxCell>
                <mxCell id="fAdK-hwoPHin2EZhHgNO-88" style="edgeStyle=none;html=1;entryX=0.5;entryY=1;entryDx=0;entryDy=0;rounded=1;" parent="1" source="fAdK-hwoPHin2EZhHgNO-87" target="fAdK-hwoPHin2EZhHgNO-1" edge="1">
                    <mxGeometry relative="1" as="geometry"/>
                </mxCell>
                <mxCell id="fAdK-hwoPHin2EZhHgNO-87" value="itemsPrice" style="ellipse;whiteSpace=wrap;html=1;rounded=1;" parent="1" vertex="1">
                    <mxGeometry x="20" y="650" width="80" height="40" as="geometry"/>
                </mxCell>
                <mxCell id="fAdK-hwoPHin2EZhHgNO-98" style="edgeStyle=none;html=1;entryX=0.64;entryY=1.006;entryDx=0;entryDy=0;entryPerimeter=0;rounded=1;" parent="1" source="fAdK-hwoPHin2EZhHgNO-89" target="fAdK-hwoPHin2EZhHgNO-1" edge="1">
                    <mxGeometry relative="1" as="geometry"/>
                </mxCell>
                <mxCell id="fAdK-hwoPHin2EZhHgNO-89" value="isDelivered" style="ellipse;whiteSpace=wrap;html=1;rounded=1;" parent="1" vertex="1">
                    <mxGeometry x="190" y="680" width="80" height="40" as="geometry"/>
                </mxCell>
                <mxCell id="fAdK-hwoPHin2EZhHgNO-97" style="edgeStyle=none;html=1;rounded=1;" parent="1" source="fAdK-hwoPHin2EZhHgNO-90" target="fAdK-hwoPHin2EZhHgNO-1" edge="1">
                    <mxGeometry relative="1" as="geometry"/>
                </mxCell>
                <mxCell id="fAdK-hwoPHin2EZhHgNO-90" value="isPaid" style="ellipse;whiteSpace=wrap;html=1;rounded=1;" parent="1" vertex="1">
                    <mxGeometry x="70" y="350" width="80" height="40" as="geometry"/>
                </mxCell>
                <mxCell id="fAdK-hwoPHin2EZhHgNO-96" style="edgeStyle=none;html=1;entryX=0.907;entryY=-0.017;entryDx=0;entryDy=0;entryPerimeter=0;rounded=1;" parent="1" source="fAdK-hwoPHin2EZhHgNO-91" target="fAdK-hwoPHin2EZhHgNO-1" edge="1">
                    <mxGeometry relative="1" as="geometry"/>
                </mxCell>
                <mxCell id="fAdK-hwoPHin2EZhHgNO-91" value="totalPrice" style="ellipse;whiteSpace=wrap;html=1;rounded=1;" parent="1" vertex="1">
                    <mxGeometry x="230" y="350" width="80" height="40" as="geometry"/>
                </mxCell>
                <mxCell id="fAdK-hwoPHin2EZhHgNO-95" value="" style="edgeStyle=none;html=1;rounded=1;" parent="1" source="fAdK-hwoPHin2EZhHgNO-92" target="fAdK-hwoPHin2EZhHgNO-1" edge="1">
                    <mxGeometry relative="1" as="geometry"/>
                </mxCell>
                <mxCell id="fAdK-hwoPHin2EZhHgNO-92" value="shippingPrice" style="ellipse;whiteSpace=wrap;html=1;rounded=1;" parent="1" vertex="1">
                    <mxGeometry x="330" y="620" width="80" height="40" as="geometry"/>
                </mxCell>
                <mxCell id="fAdK-hwoPHin2EZhHgNO-94" style="edgeStyle=none;html=1;entryX=0.75;entryY=1;entryDx=0;entryDy=0;rounded=1;" parent="1" source="fAdK-hwoPHin2EZhHgNO-93" target="fAdK-hwoPHin2EZhHgNO-1" edge="1">
                    <mxGeometry relative="1" as="geometry"/>
                </mxCell>
                <mxCell id="fAdK-hwoPHin2EZhHgNO-93" value="taxPrice" style="ellipse;whiteSpace=wrap;html=1;rounded=1;" parent="1" vertex="1">
                    <mxGeometry x="290" y="710" width="80" height="40" as="geometry"/>
                </mxCell>
                <mxCell id="fAdK-hwoPHin2EZhHgNO-100" style="edgeStyle=none;html=1;rounded=1;" parent="1" source="fAdK-hwoPHin2EZhHgNO-99" target="fAdK-hwoPHin2EZhHgNO-1" edge="1">
                    <mxGeometry relative="1" as="geometry"/>
                </mxCell>
                <mxCell id="fAdK-hwoPHin2EZhHgNO-99" value="shippingAddress" style="ellipse;whiteSpace=wrap;html=1;rounded=1;" parent="1" vertex="1">
                    <mxGeometry x="90" y="730" width="110" height="50" as="geometry"/>
                </mxCell>
                <mxCell id="fAdK-hwoPHin2EZhHgNO-113" style="edgeStyle=none;html=1;rounded=1;" parent="1" source="fAdK-hwoPHin2EZhHgNO-101" target="fAdK-hwoPHin2EZhHgNO-99" edge="1">
                    <mxGeometry relative="1" as="geometry"/>
                </mxCell>
                <mxCell id="fAdK-hwoPHin2EZhHgNO-101" value="country" style="ellipse;whiteSpace=wrap;html=1;rounded=1;" parent="1" vertex="1">
                    <mxGeometry x="10" y="860" width="80" height="40" as="geometry"/>
                </mxCell>
                <mxCell id="fAdK-hwoPHin2EZhHgNO-107" style="edgeStyle=none;html=1;entryX=0.953;entryY=0.709;entryDx=0;entryDy=0;entryPerimeter=0;rounded=1;" parent="1" source="fAdK-hwoPHin2EZhHgNO-102" target="fAdK-hwoPHin2EZhHgNO-99" edge="1">
                    <mxGeometry relative="1" as="geometry"/>
                </mxCell>
                <mxCell id="fAdK-hwoPHin2EZhHgNO-102" value="postalCode" style="ellipse;whiteSpace=wrap;html=1;rounded=1;" parent="1" vertex="1">
                    <mxGeometry x="270" y="820" width="80" height="40" as="geometry"/>
                </mxCell>
                <mxCell id="fAdK-hwoPHin2EZhHgNO-105" style="edgeStyle=none;html=1;rounded=1;" parent="1" source="fAdK-hwoPHin2EZhHgNO-103" target="fAdK-hwoPHin2EZhHgNO-99" edge="1">
                    <mxGeometry relative="1" as="geometry"/>
                </mxCell>
                <mxCell id="fAdK-hwoPHin2EZhHgNO-103" value="city" style="ellipse;whiteSpace=wrap;html=1;rounded=1;" parent="1" vertex="1">
                    <mxGeometry x="120" y="900" width="80" height="40" as="geometry"/>
                </mxCell>
                <mxCell id="fAdK-hwoPHin2EZhHgNO-106" style="edgeStyle=none;html=1;entryX=1;entryY=1;entryDx=0;entryDy=0;rounded=1;" parent="1" source="fAdK-hwoPHin2EZhHgNO-104" target="fAdK-hwoPHin2EZhHgNO-99" edge="1">
                    <mxGeometry relative="1" as="geometry"/>
                </mxCell>
                <mxCell id="fAdK-hwoPHin2EZhHgNO-104" value="address" style="ellipse;whiteSpace=wrap;html=1;rounded=1;" parent="1" vertex="1">
                    <mxGeometry x="200" y="880" width="80" height="40" as="geometry"/>
                </mxCell>
                <mxCell id="fAdK-hwoPHin2EZhHgNO-111" style="edgeStyle=none;html=1;entryX=0;entryY=1;entryDx=0;entryDy=0;rounded=1;" parent="1" source="fAdK-hwoPHin2EZhHgNO-110" target="fAdK-hwoPHin2EZhHgNO-99" edge="1">
                    <mxGeometry relative="1" as="geometry"/>
                </mxCell>
                <mxCell id="fAdK-hwoPHin2EZhHgNO-110" value="address" style="ellipse;whiteSpace=wrap;html=1;rounded=1;" parent="1" vertex="1">
                    <mxGeometry x="-30" y="770" width="80" height="40" as="geometry"/>
                </mxCell>
                <mxCell id="fAdK-hwoPHin2EZhHgNO-117" value="" style="edgeStyle=none;html=1;endArrow=none;rounded=1;" parent="1" source="fAdK-hwoPHin2EZhHgNO-3" target="fAdK-hwoPHin2EZhHgNO-116" edge="1">
                    <mxGeometry relative="1" as="geometry">
                        <mxPoint x="220" y="180" as="sourcePoint"/>
                        <mxPoint x="220" y="480" as="targetPoint"/>
                    </mxGeometry>
                </mxCell>
                <mxCell id="U7l_WnDoAh4-SHKEOXsp-7" value="1:1" style="edgeLabel;html=1;align=center;verticalAlign=middle;resizable=0;points=[];fontSize=25;fontColor=#00FF00;rounded=1;" vertex="1" connectable="0" parent="fAdK-hwoPHin2EZhHgNO-117">
                    <mxGeometry x="-0.2666" y="2" relative="1" as="geometry">
                        <mxPoint x="-1" y="-1" as="offset"/>
                    </mxGeometry>
                </mxCell>
                <mxCell id="fAdK-hwoPHin2EZhHgNO-116" value="Make" style="rhombus;whiteSpace=wrap;html=1;fillColor=#fff2cc;gradientColor=#ffd966;strokeColor=#d6b656;fontColor=#0a0000;rounded=1;" parent="1" vertex="1">
                    <mxGeometry x="180" y="260" width="80" height="80" as="geometry"/>
                </mxCell>
                <mxCell id="fAdK-hwoPHin2EZhHgNO-120" style="edgeStyle=none;html=1;rounded=1;" parent="1" source="fAdK-hwoPHin2EZhHgNO-118" target="fAdK-hwoPHin2EZhHgNO-1" edge="1">
                    <mxGeometry relative="1" as="geometry"/>
                </mxCell>
                <mxCell id="fAdK-hwoPHin2EZhHgNO-122" style="edgeStyle=none;html=1;rounded=1;" parent="1" source="fAdK-hwoPHin2EZhHgNO-118" target="fAdK-hwoPHin2EZhHgNO-121" edge="1">
                    <mxGeometry relative="1" as="geometry"/>
                </mxCell>
                <mxCell id="fAdK-hwoPHin2EZhHgNO-118" value="orderItems" style="ellipse;whiteSpace=wrap;html=1;rounded=1;" parent="1" vertex="1">
                    <mxGeometry x="330" y="500" width="80" height="40" as="geometry"/>
                </mxCell>
                <mxCell id="fAdK-hwoPHin2EZhHgNO-121" value="Order" style="rounded=1;whiteSpace=wrap;html=1;" parent="1" vertex="1">
                    <mxGeometry x="450" y="505" width="90" height="40" as="geometry"/>
                </mxCell>
                <mxCell id="fAdK-hwoPHin2EZhHgNO-124" style="edgeStyle=none;html=1;entryX=0.25;entryY=1;entryDx=0;entryDy=0;rounded=1;" parent="1" source="fAdK-hwoPHin2EZhHgNO-123" target="fAdK-hwoPHin2EZhHgNO-121" edge="1">
                    <mxGeometry relative="1" as="geometry"/>
                </mxCell>
                <mxCell id="fAdK-hwoPHin2EZhHgNO-123" value="_id" style="ellipse;whiteSpace=wrap;html=1;fillColor=#a20025;fontColor=#ffffff;strokeColor=#6F0000;rounded=1;" parent="1" vertex="1">
                    <mxGeometry x="420" y="620" width="80" height="40" as="geometry"/>
                </mxCell>
                <mxCell id="fAdK-hwoPHin2EZhHgNO-131" style="edgeStyle=none;html=1;rounded=1;" parent="1" source="fAdK-hwoPHin2EZhHgNO-125" target="fAdK-hwoPHin2EZhHgNO-121" edge="1">
                    <mxGeometry relative="1" as="geometry"/>
                </mxCell>
                <mxCell id="fAdK-hwoPHin2EZhHgNO-125" value="qty" style="ellipse;whiteSpace=wrap;html=1;rounded=1;" parent="1" vertex="1">
                    <mxGeometry x="590" y="520" width="80" height="40" as="geometry"/>
                </mxCell>
                <mxCell id="fAdK-hwoPHin2EZhHgNO-133" style="edgeStyle=none;html=1;entryX=1;entryY=0;entryDx=0;entryDy=0;rounded=1;" parent="1" source="fAdK-hwoPHin2EZhHgNO-127" target="fAdK-hwoPHin2EZhHgNO-121" edge="1">
                    <mxGeometry relative="1" as="geometry"/>
                </mxCell>
                <mxCell id="fAdK-hwoPHin2EZhHgNO-127" value="price" style="ellipse;whiteSpace=wrap;html=1;rounded=1;" parent="1" vertex="1">
                    <mxGeometry x="580" y="440" width="80" height="40" as="geometry"/>
                </mxCell>
                <mxCell id="fAdK-hwoPHin2EZhHgNO-132" style="edgeStyle=none;html=1;entryX=0.5;entryY=1;entryDx=0;entryDy=0;rounded=1;" parent="1" source="fAdK-hwoPHin2EZhHgNO-128" target="fAdK-hwoPHin2EZhHgNO-121" edge="1">
                    <mxGeometry relative="1" as="geometry"/>
                </mxCell>
                <mxCell id="fAdK-hwoPHin2EZhHgNO-128" value="image" style="ellipse;whiteSpace=wrap;html=1;rounded=1;" parent="1" vertex="1">
                    <mxGeometry x="490" y="670" width="80" height="40" as="geometry"/>
                </mxCell>
                <mxCell id="fAdK-hwoPHin2EZhHgNO-130" style="edgeStyle=none;html=1;entryX=0.75;entryY=1;entryDx=0;entryDy=0;rounded=1;" parent="1" source="fAdK-hwoPHin2EZhHgNO-129" target="fAdK-hwoPHin2EZhHgNO-121" edge="1">
                    <mxGeometry relative="1" as="geometry"/>
                </mxCell>
                <mxCell id="fAdK-hwoPHin2EZhHgNO-129" value="name" style="ellipse;whiteSpace=wrap;html=1;rounded=1;" parent="1" vertex="1">
                    <mxGeometry x="550" y="610" width="80" height="40" as="geometry"/>
                </mxCell>
                <mxCell id="fAdK-hwoPHin2EZhHgNO-136" style="edgeStyle=none;html=1;entryX=0.25;entryY=0;entryDx=0;entryDy=0;rounded=1;" parent="1" source="fAdK-hwoPHin2EZhHgNO-135" target="fAdK-hwoPHin2EZhHgNO-121" edge="1">
                    <mxGeometry relative="1" as="geometry"/>
                </mxCell>
                <mxCell id="fAdK-hwoPHin2EZhHgNO-135" value="product" style="ellipse;whiteSpace=wrap;html=1;fillColor=#6a00ff;fontColor=#ffffff;strokeColor=#3700CC;rounded=1;" parent="1" vertex="1">
                    <mxGeometry x="390" y="385" width="80" height="40" as="geometry"/>
                </mxCell>
                <mxCell id="fAdK-hwoPHin2EZhHgNO-139" value="" style="edgeStyle=none;html=1;entryX=0.75;entryY=0;entryDx=0;entryDy=0;endArrow=none;rounded=1;" parent="1" source="fAdK-hwoPHin2EZhHgNO-2" target="fAdK-hwoPHin2EZhHgNO-138" edge="1">
                    <mxGeometry relative="1" as="geometry">
                        <mxPoint x="721.1971830985913" y="180" as="sourcePoint"/>
                        <mxPoint x="517.5" y="505" as="targetPoint"/>
                    </mxGeometry>
                </mxCell>
                <mxCell id="U7l_WnDoAh4-SHKEOXsp-9" value="0:1" style="edgeLabel;html=1;align=center;verticalAlign=middle;resizable=0;points=[];fontSize=25;fontColor=#00FF00;rounded=1;" vertex="1" connectable="0" parent="fAdK-hwoPHin2EZhHgNO-139">
                    <mxGeometry x="-0.0318" y="1" relative="1" as="geometry">
                        <mxPoint x="-1" as="offset"/>
                    </mxGeometry>
                </mxCell>
                <mxCell id="fAdK-hwoPHin2EZhHgNO-138" value="Create" style="rhombus;whiteSpace=wrap;html=1;fillColor=#fff2cc;gradientColor=#ffd966;strokeColor=#d6b656;fontColor=#0a0000;rounded=1;" parent="1" vertex="1">
                    <mxGeometry x="580" y="290" width="80" height="80" as="geometry"/>
                </mxCell>
                <mxCell id="kNZoSQcd5ahxVc4Bdfz9-1" value="Reviews" style="ellipse;whiteSpace=wrap;html=1;rounded=1;" vertex="1" parent="1">
                    <mxGeometry x="710" y="365" width="62" height="30" as="geometry"/>
                </mxCell>
                <mxCell id="kNZoSQcd5ahxVc4Bdfz9-2" value="orderItems" style="ellipse;whiteSpace=wrap;html=1;rounded=1;" vertex="1" parent="1">
                    <mxGeometry x="338.5" y="506" width="63" height="28" as="geometry"/>
                </mxCell>
            </root>
        </mxGraphModel>
    </diagram>
    <diagram id="0jVk0smQ1hyO0Seyk2-m" name="Mapping 1">
        <mxGraphModel dx="1173" dy="1137" grid="0" gridSize="10" guides="1" tooltips="1" connect="1" arrows="1" fold="1" page="0" pageScale="1" pageWidth="1100" pageHeight="850" math="0" shadow="0">
            <root>
                <mxCell id="0"/>
                <mxCell id="1" parent="0"/>
                <mxCell id="EzThDuLHk-tmeXsB31Vt-121" value="User" style="shape=table;startSize=30;container=1;collapsible=0;childLayout=tableLayout;" vertex="1" parent="1">
                    <mxGeometry x="-745" y="94" width="300" height="70" as="geometry"/>
                </mxCell>
                <mxCell id="EzThDuLHk-tmeXsB31Vt-122" value="" style="shape=tableRow;horizontal=0;startSize=0;swimlaneHead=0;swimlaneBody=0;top=0;left=0;bottom=0;right=0;collapsible=0;dropTarget=0;fillColor=none;points=[[0,0.5],[1,0.5]];portConstraint=eastwest;" vertex="1" parent="EzThDuLHk-tmeXsB31Vt-121">
                    <mxGeometry y="30" width="300" height="40" as="geometry"/>
                </mxCell>
                <mxCell id="EzThDuLHk-tmeXsB31Vt-123" value="_ID" style="shape=partialRectangle;html=1;whiteSpace=wrap;connectable=0;overflow=hidden;fillColor=#a20025;top=0;left=0;bottom=0;right=0;pointerEvents=1;fontColor=#ffffff;strokeColor=#6F0000;" vertex="1" parent="EzThDuLHk-tmeXsB31Vt-122">
                    <mxGeometry width="60" height="40" as="geometry">
                        <mxRectangle width="60" height="40" as="alternateBounds"/>
                    </mxGeometry>
                </mxCell>
                <mxCell id="EzThDuLHk-tmeXsB31Vt-124" value="Name" style="shape=partialRectangle;html=1;whiteSpace=wrap;connectable=0;overflow=hidden;fillColor=none;top=0;left=0;bottom=0;right=0;pointerEvents=1;" vertex="1" parent="EzThDuLHk-tmeXsB31Vt-122">
                    <mxGeometry x="60" width="60" height="40" as="geometry">
                        <mxRectangle width="60" height="40" as="alternateBounds"/>
                    </mxGeometry>
                </mxCell>
                <mxCell id="EzThDuLHk-tmeXsB31Vt-125" value="Email" style="shape=partialRectangle;html=1;whiteSpace=wrap;connectable=0;overflow=hidden;fillColor=none;top=0;left=0;bottom=0;right=0;pointerEvents=1;" vertex="1" parent="EzThDuLHk-tmeXsB31Vt-122">
                    <mxGeometry x="120" width="60" height="40" as="geometry">
                        <mxRectangle width="60" height="40" as="alternateBounds"/>
                    </mxGeometry>
                </mxCell>
                <mxCell id="EzThDuLHk-tmeXsB31Vt-126" value="Password" style="shape=partialRectangle;html=1;whiteSpace=wrap;connectable=0;overflow=hidden;fillColor=none;top=0;left=0;bottom=0;right=0;pointerEvents=1;" vertex="1" parent="EzThDuLHk-tmeXsB31Vt-122">
                    <mxGeometry x="180" width="60" height="40" as="geometry">
                        <mxRectangle width="60" height="40" as="alternateBounds"/>
                    </mxGeometry>
                </mxCell>
                <mxCell id="EzThDuLHk-tmeXsB31Vt-127" value="isAdmin" style="shape=partialRectangle;html=1;whiteSpace=wrap;connectable=0;overflow=hidden;fillColor=none;top=0;left=0;bottom=0;right=0;pointerEvents=1;" vertex="1" parent="EzThDuLHk-tmeXsB31Vt-122">
                    <mxGeometry x="240" width="60" height="40" as="geometry">
                        <mxRectangle width="60" height="40" as="alternateBounds"/>
                    </mxGeometry>
                </mxCell>
                <mxCell id="EzThDuLHk-tmeXsB31Vt-153" style="edgeStyle=none;html=1;entryX=0.539;entryY=-0.005;entryDx=0;entryDy=0;entryPerimeter=0;exitX=0.88;exitY=1.017;exitDx=0;exitDy=0;exitPerimeter=0;" edge="1" parent="1" source="EzThDuLHk-tmeXsB31Vt-129" target="EzThDuLHk-tmeXsB31Vt-144">
                    <mxGeometry relative="1" as="geometry">
                        <Array as="points">
                            <mxPoint x="-164" y="433"/>
                            <mxPoint x="-581" y="433"/>
                        </Array>
                    </mxGeometry>
                </mxCell>
                <mxCell id="EzThDuLHk-tmeXsB31Vt-154" value="Array" style="edgeLabel;html=1;align=center;verticalAlign=middle;resizable=0;points=[];" vertex="1" connectable="0" parent="EzThDuLHk-tmeXsB31Vt-153">
                    <mxGeometry x="0.0363" relative="1" as="geometry">
                        <mxPoint as="offset"/>
                    </mxGeometry>
                </mxCell>
                <mxCell id="EzThDuLHk-tmeXsB31Vt-128" value="Products" style="shape=table;startSize=30;container=1;collapsible=0;childLayout=tableLayout;" vertex="1" parent="1">
                    <mxGeometry x="-745" y="295" width="660" height="70" as="geometry"/>
                </mxCell>
                <mxCell id="EzThDuLHk-tmeXsB31Vt-129" value="" style="shape=tableRow;horizontal=0;startSize=0;swimlaneHead=0;swimlaneBody=0;top=0;left=0;bottom=0;right=0;collapsible=0;dropTarget=0;fillColor=none;points=[[0,0.5],[1,0.5]];portConstraint=eastwest;" vertex="1" parent="EzThDuLHk-tmeXsB31Vt-128">
                    <mxGeometry y="30" width="660" height="40" as="geometry"/>
                </mxCell>
                <mxCell id="EzThDuLHk-tmeXsB31Vt-130" value="_id" style="shape=partialRectangle;html=1;whiteSpace=wrap;connectable=0;overflow=hidden;fillColor=#a20025;top=0;left=0;bottom=0;right=0;pointerEvents=1;fontColor=#ffffff;strokeColor=#6F0000;" vertex="1" parent="EzThDuLHk-tmeXsB31Vt-129">
                    <mxGeometry width="60" height="40" as="geometry">
                        <mxRectangle width="60" height="40" as="alternateBounds"/>
                    </mxGeometry>
                </mxCell>
                <mxCell id="EzThDuLHk-tmeXsB31Vt-131" value="name" style="shape=partialRectangle;html=1;whiteSpace=wrap;connectable=0;overflow=hidden;fillColor=none;top=0;left=0;bottom=0;right=0;pointerEvents=1;" vertex="1" parent="EzThDuLHk-tmeXsB31Vt-129">
                    <mxGeometry x="60" width="60" height="40" as="geometry">
                        <mxRectangle width="60" height="40" as="alternateBounds"/>
                    </mxGeometry>
                </mxCell>
                <mxCell id="EzThDuLHk-tmeXsB31Vt-132" value="image" style="shape=partialRectangle;html=1;whiteSpace=wrap;connectable=0;overflow=hidden;fillColor=none;top=0;left=0;bottom=0;right=0;pointerEvents=1;" vertex="1" parent="EzThDuLHk-tmeXsB31Vt-129">
                    <mxGeometry x="120" width="60" height="40" as="geometry">
                        <mxRectangle width="60" height="40" as="alternateBounds"/>
                    </mxGeometry>
                </mxCell>
                <mxCell id="EzThDuLHk-tmeXsB31Vt-133" value="catagory" style="shape=partialRectangle;html=1;whiteSpace=wrap;connectable=0;overflow=hidden;fillColor=none;top=0;left=0;bottom=0;right=0;pointerEvents=1;" vertex="1" parent="EzThDuLHk-tmeXsB31Vt-129">
                    <mxGeometry x="180" width="60" height="40" as="geometry">
                        <mxRectangle width="60" height="40" as="alternateBounds"/>
                    </mxGeometry>
                </mxCell>
                <mxCell id="EzThDuLHk-tmeXsB31Vt-134" value="description" style="shape=partialRectangle;html=1;whiteSpace=wrap;connectable=0;overflow=hidden;fillColor=none;top=0;left=0;bottom=0;right=0;pointerEvents=1;" vertex="1" parent="EzThDuLHk-tmeXsB31Vt-129">
                    <mxGeometry x="240" width="60" height="40" as="geometry">
                        <mxRectangle width="60" height="40" as="alternateBounds"/>
                    </mxGeometry>
                </mxCell>
                <mxCell id="EzThDuLHk-tmeXsB31Vt-135" value="rating" style="shape=partialRectangle;html=1;whiteSpace=wrap;connectable=0;overflow=hidden;fillColor=none;top=0;left=0;bottom=0;right=0;pointerEvents=1;" vertex="1" parent="EzThDuLHk-tmeXsB31Vt-129">
                    <mxGeometry x="300" width="60" height="40" as="geometry">
                        <mxRectangle width="60" height="40" as="alternateBounds"/>
                    </mxGeometry>
                </mxCell>
                <mxCell id="EzThDuLHk-tmeXsB31Vt-136" value="numReviews" style="shape=partialRectangle;html=1;whiteSpace=wrap;connectable=0;overflow=hidden;fillColor=none;top=0;left=0;bottom=0;right=0;pointerEvents=1;" vertex="1" parent="EzThDuLHk-tmeXsB31Vt-129">
                    <mxGeometry x="360" width="60" height="40" as="geometry">
                        <mxRectangle width="60" height="40" as="alternateBounds"/>
                    </mxGeometry>
                </mxCell>
                <mxCell id="EzThDuLHk-tmeXsB31Vt-137" value="price" style="shape=partialRectangle;html=1;whiteSpace=wrap;connectable=0;overflow=hidden;fillColor=none;top=0;left=0;bottom=0;right=0;pointerEvents=1;" vertex="1" parent="EzThDuLHk-tmeXsB31Vt-129">
                    <mxGeometry x="420" width="60" height="40" as="geometry">
                        <mxRectangle width="60" height="40" as="alternateBounds"/>
                    </mxGeometry>
                </mxCell>
                <mxCell id="EzThDuLHk-tmeXsB31Vt-142" value="countInStock" style="shape=partialRectangle;html=1;whiteSpace=wrap;connectable=0;overflow=hidden;fillColor=none;top=0;left=0;bottom=0;right=0;pointerEvents=1;" vertex="1" parent="EzThDuLHk-tmeXsB31Vt-129">
                    <mxGeometry x="480" width="60" height="40" as="geometry">
                        <mxRectangle width="60" height="40" as="alternateBounds"/>
                    </mxGeometry>
                </mxCell>
                <mxCell id="EzThDuLHk-tmeXsB31Vt-143" value="Reviews" style="shape=partialRectangle;html=1;whiteSpace=wrap;connectable=0;overflow=hidden;fillColor=none;top=0;left=0;bottom=0;right=0;pointerEvents=1;" vertex="1" parent="EzThDuLHk-tmeXsB31Vt-129">
                    <mxGeometry x="540" width="60" height="40" as="geometry">
                        <mxRectangle width="60" height="40" as="alternateBounds"/>
                    </mxGeometry>
                </mxCell>
                <mxCell id="EzThDuLHk-tmeXsB31Vt-138" value="user" style="shape=partialRectangle;html=1;whiteSpace=wrap;connectable=0;overflow=hidden;fillColor=#6a00ff;top=0;left=0;bottom=0;right=0;pointerEvents=1;fontColor=#ffffff;strokeColor=#3700CC;" vertex="1" parent="EzThDuLHk-tmeXsB31Vt-129">
                    <mxGeometry x="600" width="60" height="40" as="geometry">
                        <mxRectangle width="60" height="40" as="alternateBounds"/>
                    </mxGeometry>
                </mxCell>
                <mxCell id="EzThDuLHk-tmeXsB31Vt-140" value="" style="endArrow=classic;html=1;exitX=0.998;exitY=0.808;exitDx=0;exitDy=0;exitPerimeter=0;entryX=0.086;entryY=0.979;entryDx=0;entryDy=0;entryPerimeter=0;" edge="1" parent="1" source="EzThDuLHk-tmeXsB31Vt-129" target="EzThDuLHk-tmeXsB31Vt-122">
                    <mxGeometry width="50" height="50" relative="1" as="geometry">
                        <mxPoint x="-144" y="353" as="sourcePoint"/>
                        <mxPoint x="-490" y="167" as="targetPoint"/>
                        <Array as="points">
                            <mxPoint x="-32" y="357"/>
                            <mxPoint x="-32" y="222"/>
                            <mxPoint x="-492" y="218"/>
                            <mxPoint x="-719" y="220"/>
                        </Array>
                    </mxGeometry>
                </mxCell>
                <mxCell id="EzThDuLHk-tmeXsB31Vt-144" value="Review" style="shape=table;startSize=30;container=1;collapsible=0;childLayout=tableLayout;" vertex="1" parent="1">
                    <mxGeometry x="-745" y="470" width="300" height="70" as="geometry"/>
                </mxCell>
                <mxCell id="EzThDuLHk-tmeXsB31Vt-145" value="" style="shape=tableRow;horizontal=0;startSize=0;swimlaneHead=0;swimlaneBody=0;top=0;left=0;bottom=0;right=0;collapsible=0;dropTarget=0;fillColor=none;points=[[0,0.5],[1,0.5]];portConstraint=eastwest;" vertex="1" parent="EzThDuLHk-tmeXsB31Vt-144">
                    <mxGeometry y="30" width="300" height="40" as="geometry"/>
                </mxCell>
                <mxCell id="EzThDuLHk-tmeXsB31Vt-146" value="_id" style="shape=partialRectangle;html=1;whiteSpace=wrap;connectable=0;overflow=hidden;fillColor=#a20025;top=0;left=0;bottom=0;right=0;pointerEvents=1;fontColor=#ffffff;strokeColor=#6F0000;" vertex="1" parent="EzThDuLHk-tmeXsB31Vt-145">
                    <mxGeometry width="60" height="40" as="geometry">
                        <mxRectangle width="60" height="40" as="alternateBounds"/>
                    </mxGeometry>
                </mxCell>
                <mxCell id="EzThDuLHk-tmeXsB31Vt-147" value="name" style="shape=partialRectangle;html=1;whiteSpace=wrap;connectable=0;overflow=hidden;fillColor=none;top=0;left=0;bottom=0;right=0;pointerEvents=1;" vertex="1" parent="EzThDuLHk-tmeXsB31Vt-145">
                    <mxGeometry x="60" width="60" height="40" as="geometry">
                        <mxRectangle width="60" height="40" as="alternateBounds"/>
                    </mxGeometry>
                </mxCell>
                <mxCell id="EzThDuLHk-tmeXsB31Vt-148" value="Rating" style="shape=partialRectangle;html=1;whiteSpace=wrap;connectable=0;overflow=hidden;fillColor=none;top=0;left=0;bottom=0;right=0;pointerEvents=1;" vertex="1" parent="EzThDuLHk-tmeXsB31Vt-145">
                    <mxGeometry x="120" width="60" height="40" as="geometry">
                        <mxRectangle width="60" height="40" as="alternateBounds"/>
                    </mxGeometry>
                </mxCell>
                <mxCell id="EzThDuLHk-tmeXsB31Vt-149" value="Comment" style="shape=partialRectangle;html=1;whiteSpace=wrap;connectable=0;overflow=hidden;fillColor=none;top=0;left=0;bottom=0;right=0;pointerEvents=1;" vertex="1" parent="EzThDuLHk-tmeXsB31Vt-145">
                    <mxGeometry x="180" width="60" height="40" as="geometry">
                        <mxRectangle width="60" height="40" as="alternateBounds"/>
                    </mxGeometry>
                </mxCell>
                <mxCell id="EzThDuLHk-tmeXsB31Vt-150" value="User" style="shape=partialRectangle;html=1;whiteSpace=wrap;connectable=0;overflow=hidden;fillColor=#6a00ff;top=0;left=0;bottom=0;right=0;pointerEvents=1;fontColor=#ffffff;strokeColor=#3700CC;" vertex="1" parent="EzThDuLHk-tmeXsB31Vt-145">
                    <mxGeometry x="240" width="60" height="40" as="geometry">
                        <mxRectangle width="60" height="40" as="alternateBounds"/>
                    </mxGeometry>
                </mxCell>
                <mxCell id="EzThDuLHk-tmeXsB31Vt-151" value="" style="endArrow=classic;html=1;exitX=1;exitY=0.5;exitDx=0;exitDy=0;entryX=0.12;entryY=1.021;entryDx=0;entryDy=0;entryPerimeter=0;" edge="1" parent="1" source="EzThDuLHk-tmeXsB31Vt-145" target="EzThDuLHk-tmeXsB31Vt-122">
                    <mxGeometry width="50" height="50" relative="1" as="geometry">
                        <mxPoint x="-76.32000000000016" y="367.31999999999994" as="sourcePoint"/>
                        <mxPoint x="-709.2" y="173.15999999999997" as="targetPoint"/>
                        <Array as="points">
                            <mxPoint x="-6" y="520"/>
                            <mxPoint x="-3" y="232"/>
                            <mxPoint x="-482" y="228"/>
                            <mxPoint x="-709" y="230"/>
                        </Array>
                    </mxGeometry>
                </mxCell>
                <mxCell id="EzThDuLHk-tmeXsB31Vt-155" value="Orders" style="shape=table;startSize=30;container=1;collapsible=0;childLayout=tableLayout;" vertex="1" parent="1">
                    <mxGeometry x="-745" y="610" width="660" height="70" as="geometry"/>
                </mxCell>
                <mxCell id="EzThDuLHk-tmeXsB31Vt-156" value="" style="shape=tableRow;horizontal=0;startSize=0;swimlaneHead=0;swimlaneBody=0;top=0;left=0;bottom=0;right=0;collapsible=0;dropTarget=0;fillColor=none;points=[[0,0.5],[1,0.5]];portConstraint=eastwest;" vertex="1" parent="EzThDuLHk-tmeXsB31Vt-155">
                    <mxGeometry y="30" width="660" height="40" as="geometry"/>
                </mxCell>
                <mxCell id="EzThDuLHk-tmeXsB31Vt-157" value="_id" style="shape=partialRectangle;html=1;whiteSpace=wrap;connectable=0;overflow=hidden;fillColor=#a20025;top=0;left=0;bottom=0;right=0;pointerEvents=1;fontColor=#ffffff;strokeColor=#6F0000;" vertex="1" parent="EzThDuLHk-tmeXsB31Vt-156">
                    <mxGeometry width="60" height="40" as="geometry">
                        <mxRectangle width="60" height="40" as="alternateBounds"/>
                    </mxGeometry>
                </mxCell>
                <mxCell id="EzThDuLHk-tmeXsB31Vt-158" value="OrderItems" style="shape=partialRectangle;html=1;whiteSpace=wrap;connectable=0;overflow=hidden;fillColor=none;top=0;left=0;bottom=0;right=0;pointerEvents=1;" vertex="1" parent="EzThDuLHk-tmeXsB31Vt-156">
                    <mxGeometry x="60" width="60" height="40" as="geometry">
                        <mxRectangle width="60" height="40" as="alternateBounds"/>
                    </mxGeometry>
                </mxCell>
                <mxCell id="EzThDuLHk-tmeXsB31Vt-159" value="ShippingAddress" style="shape=partialRectangle;html=1;whiteSpace=wrap;connectable=0;overflow=hidden;fillColor=none;top=0;left=0;bottom=0;right=0;pointerEvents=1;" vertex="1" parent="EzThDuLHk-tmeXsB31Vt-156">
                    <mxGeometry x="120" width="60" height="40" as="geometry">
                        <mxRectangle width="60" height="40" as="alternateBounds"/>
                    </mxGeometry>
                </mxCell>
                <mxCell id="EzThDuLHk-tmeXsB31Vt-160" value="PaymentMethod" style="shape=partialRectangle;html=1;whiteSpace=wrap;connectable=0;overflow=hidden;fillColor=none;top=0;left=0;bottom=0;right=0;pointerEvents=1;" vertex="1" parent="EzThDuLHk-tmeXsB31Vt-156">
                    <mxGeometry x="180" width="60" height="40" as="geometry">
                        <mxRectangle width="60" height="40" as="alternateBounds"/>
                    </mxGeometry>
                </mxCell>
                <mxCell id="EzThDuLHk-tmeXsB31Vt-161" value="itemsPrice" style="shape=partialRectangle;html=1;whiteSpace=wrap;connectable=0;overflow=hidden;fillColor=none;top=0;left=0;bottom=0;right=0;pointerEvents=1;" vertex="1" parent="EzThDuLHk-tmeXsB31Vt-156">
                    <mxGeometry x="240" width="60" height="40" as="geometry">
                        <mxRectangle width="60" height="40" as="alternateBounds"/>
                    </mxGeometry>
                </mxCell>
                <mxCell id="EzThDuLHk-tmeXsB31Vt-162" value="taxPrice" style="shape=partialRectangle;html=1;whiteSpace=wrap;connectable=0;overflow=hidden;fillColor=none;top=0;left=0;bottom=0;right=0;pointerEvents=1;" vertex="1" parent="EzThDuLHk-tmeXsB31Vt-156">
                    <mxGeometry x="300" width="60" height="40" as="geometry">
                        <mxRectangle width="60" height="40" as="alternateBounds"/>
                    </mxGeometry>
                </mxCell>
                <mxCell id="EzThDuLHk-tmeXsB31Vt-163" value="shippingPrice" style="shape=partialRectangle;html=1;whiteSpace=wrap;connectable=0;overflow=hidden;fillColor=none;top=0;left=0;bottom=0;right=0;pointerEvents=1;" vertex="1" parent="EzThDuLHk-tmeXsB31Vt-156">
                    <mxGeometry x="360" width="60" height="40" as="geometry">
                        <mxRectangle width="60" height="40" as="alternateBounds"/>
                    </mxGeometry>
                </mxCell>
                <mxCell id="EzThDuLHk-tmeXsB31Vt-164" value="totalPrice" style="shape=partialRectangle;html=1;whiteSpace=wrap;connectable=0;overflow=hidden;fillColor=none;top=0;left=0;bottom=0;right=0;pointerEvents=1;" vertex="1" parent="EzThDuLHk-tmeXsB31Vt-156">
                    <mxGeometry x="420" width="60" height="40" as="geometry">
                        <mxRectangle width="60" height="40" as="alternateBounds"/>
                    </mxGeometry>
                </mxCell>
                <mxCell id="EzThDuLHk-tmeXsB31Vt-165" value="isPaid" style="shape=partialRectangle;html=1;whiteSpace=wrap;connectable=0;overflow=hidden;fillColor=none;top=0;left=0;bottom=0;right=0;pointerEvents=1;" vertex="1" parent="EzThDuLHk-tmeXsB31Vt-156">
                    <mxGeometry x="480" width="60" height="40" as="geometry">
                        <mxRectangle width="60" height="40" as="alternateBounds"/>
                    </mxGeometry>
                </mxCell>
                <mxCell id="EzThDuLHk-tmeXsB31Vt-166" value="isDelivered" style="shape=partialRectangle;html=1;whiteSpace=wrap;connectable=0;overflow=hidden;fillColor=none;top=0;left=0;bottom=0;right=0;pointerEvents=1;" vertex="1" parent="EzThDuLHk-tmeXsB31Vt-156">
                    <mxGeometry x="540" width="60" height="40" as="geometry">
                        <mxRectangle width="60" height="40" as="alternateBounds"/>
                    </mxGeometry>
                </mxCell>
                <mxCell id="EzThDuLHk-tmeXsB31Vt-167" value="user" style="shape=partialRectangle;html=1;whiteSpace=wrap;connectable=0;overflow=hidden;fillColor=#6a00ff;top=0;left=0;bottom=0;right=0;pointerEvents=1;fontColor=#ffffff;strokeColor=#3700CC;" vertex="1" parent="EzThDuLHk-tmeXsB31Vt-156">
                    <mxGeometry x="600" width="60" height="40" as="geometry">
                        <mxRectangle width="60" height="40" as="alternateBounds"/>
                    </mxGeometry>
                </mxCell>
                <mxCell id="EzThDuLHk-tmeXsB31Vt-168" value="" style="endArrow=classic;html=1;exitX=1;exitY=0.75;exitDx=0;exitDy=0;entryX=0.149;entryY=0.996;entryDx=0;entryDy=0;entryPerimeter=0;" edge="1" parent="1" source="EzThDuLHk-tmeXsB31Vt-155" target="EzThDuLHk-tmeXsB31Vt-122">
                    <mxGeometry width="50" height="50" relative="1" as="geometry">
                        <mxPoint x="-435" y="530" as="sourcePoint"/>
                        <mxPoint x="-699" y="174.84000000000003" as="targetPoint"/>
                        <Array as="points">
                            <mxPoint x="2" y="660"/>
                            <mxPoint x="4" y="530"/>
                            <mxPoint x="7" y="242"/>
                            <mxPoint x="-472" y="238"/>
                            <mxPoint x="-699" y="240"/>
                        </Array>
                    </mxGeometry>
                </mxCell>
                <mxCell id="xAenBVRVNPLRJ9-VDzcM-1" style="edgeStyle=none;html=1;entryX=0.219;entryY=1.05;entryDx=0;entryDy=0;entryPerimeter=0;exitX=0.59;exitY=-0.007;exitDx=0;exitDy=0;exitPerimeter=0;" edge="1" parent="1" source="EzThDuLHk-tmeXsB31Vt-175" target="EzThDuLHk-tmeXsB31Vt-156">
                    <mxGeometry relative="1" as="geometry"/>
                </mxCell>
                <mxCell id="EzThDuLHk-tmeXsB31Vt-175" value="shippingAddress" style="shape=table;startSize=30;container=1;collapsible=0;childLayout=tableLayout;" vertex="1" parent="1">
                    <mxGeometry x="-745" y="755" width="240" height="70" as="geometry"/>
                </mxCell>
                <mxCell id="EzThDuLHk-tmeXsB31Vt-176" value="" style="shape=tableRow;horizontal=0;startSize=0;swimlaneHead=0;swimlaneBody=0;top=0;left=0;bottom=0;right=0;collapsible=0;dropTarget=0;fillColor=none;points=[[0,0.5],[1,0.5]];portConstraint=eastwest;" vertex="1" parent="EzThDuLHk-tmeXsB31Vt-175">
                    <mxGeometry y="30" width="240" height="40" as="geometry"/>
                </mxCell>
                <mxCell id="EzThDuLHk-tmeXsB31Vt-177" value="address" style="shape=partialRectangle;html=1;whiteSpace=wrap;connectable=0;overflow=hidden;fillColor=none;top=0;left=0;bottom=0;right=0;pointerEvents=1;" vertex="1" parent="EzThDuLHk-tmeXsB31Vt-176">
                    <mxGeometry width="60" height="40" as="geometry">
                        <mxRectangle width="60" height="40" as="alternateBounds"/>
                    </mxGeometry>
                </mxCell>
                <mxCell id="EzThDuLHk-tmeXsB31Vt-178" value="city" style="shape=partialRectangle;html=1;whiteSpace=wrap;connectable=0;overflow=hidden;fillColor=none;top=0;left=0;bottom=0;right=0;pointerEvents=1;" vertex="1" parent="EzThDuLHk-tmeXsB31Vt-176">
                    <mxGeometry x="60" width="60" height="40" as="geometry">
                        <mxRectangle width="60" height="40" as="alternateBounds"/>
                    </mxGeometry>
                </mxCell>
                <mxCell id="EzThDuLHk-tmeXsB31Vt-179" value="postalCode" style="shape=partialRectangle;html=1;whiteSpace=wrap;connectable=0;overflow=hidden;fillColor=none;top=0;left=0;bottom=0;right=0;pointerEvents=1;" vertex="1" parent="EzThDuLHk-tmeXsB31Vt-176">
                    <mxGeometry x="120" width="60" height="40" as="geometry">
                        <mxRectangle width="60" height="40" as="alternateBounds"/>
                    </mxGeometry>
                </mxCell>
                <mxCell id="EzThDuLHk-tmeXsB31Vt-180" value="country" style="shape=partialRectangle;html=1;whiteSpace=wrap;connectable=0;overflow=hidden;fillColor=none;top=0;left=0;bottom=0;right=0;pointerEvents=1;" vertex="1" parent="EzThDuLHk-tmeXsB31Vt-176">
                    <mxGeometry x="180" width="60" height="40" as="geometry">
                        <mxRectangle width="60" height="40" as="alternateBounds"/>
                    </mxGeometry>
                </mxCell>
                <mxCell id="xAenBVRVNPLRJ9-VDzcM-11" style="edgeStyle=none;html=1;entryX=0.136;entryY=1.004;entryDx=0;entryDy=0;entryPerimeter=0;" edge="1" parent="1" source="xAenBVRVNPLRJ9-VDzcM-2" target="EzThDuLHk-tmeXsB31Vt-156">
                    <mxGeometry relative="1" as="geometry">
                        <Array as="points">
                            <mxPoint x="-565" y="844"/>
                            <mxPoint x="-443" y="844"/>
                            <mxPoint x="-439" y="722"/>
                            <mxPoint x="-658" y="722"/>
                        </Array>
                    </mxGeometry>
                </mxCell>
                <mxCell id="xAenBVRVNPLRJ9-VDzcM-12" value="Array" style="edgeLabel;html=1;align=center;verticalAlign=middle;resizable=0;points=[];" vertex="1" connectable="0" parent="xAenBVRVNPLRJ9-VDzcM-11">
                    <mxGeometry x="-0.1651" y="-4" relative="1" as="geometry">
                        <mxPoint as="offset"/>
                    </mxGeometry>
                </mxCell>
                <mxCell id="xAenBVRVNPLRJ9-VDzcM-2" value="orderItems" style="shape=table;startSize=30;container=1;collapsible=0;childLayout=tableLayout;" vertex="1" parent="1">
                    <mxGeometry x="-745" y="886" width="360" height="70" as="geometry"/>
                </mxCell>
                <mxCell id="xAenBVRVNPLRJ9-VDzcM-3" value="" style="shape=tableRow;horizontal=0;startSize=0;swimlaneHead=0;swimlaneBody=0;top=0;left=0;bottom=0;right=0;collapsible=0;dropTarget=0;fillColor=none;points=[[0,0.5],[1,0.5]];portConstraint=eastwest;" vertex="1" parent="xAenBVRVNPLRJ9-VDzcM-2">
                    <mxGeometry y="30" width="360" height="40" as="geometry"/>
                </mxCell>
                <mxCell id="xAenBVRVNPLRJ9-VDzcM-4" value="_id" style="shape=partialRectangle;html=1;whiteSpace=wrap;connectable=0;overflow=hidden;fillColor=#a20025;top=0;left=0;bottom=0;right=0;pointerEvents=1;fontColor=#ffffff;strokeColor=#6F0000;" vertex="1" parent="xAenBVRVNPLRJ9-VDzcM-3">
                    <mxGeometry width="60" height="40" as="geometry">
                        <mxRectangle width="60" height="40" as="alternateBounds"/>
                    </mxGeometry>
                </mxCell>
                <mxCell id="xAenBVRVNPLRJ9-VDzcM-5" value="name" style="shape=partialRectangle;html=1;whiteSpace=wrap;connectable=0;overflow=hidden;fillColor=none;top=0;left=0;bottom=0;right=0;pointerEvents=1;" vertex="1" parent="xAenBVRVNPLRJ9-VDzcM-3">
                    <mxGeometry x="60" width="60" height="40" as="geometry">
                        <mxRectangle width="60" height="40" as="alternateBounds"/>
                    </mxGeometry>
                </mxCell>
                <mxCell id="xAenBVRVNPLRJ9-VDzcM-6" value="qty" style="shape=partialRectangle;html=1;whiteSpace=wrap;connectable=0;overflow=hidden;fillColor=none;top=0;left=0;bottom=0;right=0;pointerEvents=1;" vertex="1" parent="xAenBVRVNPLRJ9-VDzcM-3">
                    <mxGeometry x="120" width="60" height="40" as="geometry">
                        <mxRectangle width="60" height="40" as="alternateBounds"/>
                    </mxGeometry>
                </mxCell>
                <mxCell id="xAenBVRVNPLRJ9-VDzcM-7" value="image" style="shape=partialRectangle;html=1;whiteSpace=wrap;connectable=0;overflow=hidden;fillColor=none;top=0;left=0;bottom=0;right=0;pointerEvents=1;" vertex="1" parent="xAenBVRVNPLRJ9-VDzcM-3">
                    <mxGeometry x="180" width="60" height="40" as="geometry">
                        <mxRectangle width="60" height="40" as="alternateBounds"/>
                    </mxGeometry>
                </mxCell>
                <mxCell id="xAenBVRVNPLRJ9-VDzcM-8" value="price" style="shape=partialRectangle;html=1;whiteSpace=wrap;connectable=0;overflow=hidden;fillColor=none;top=0;left=0;bottom=0;right=0;pointerEvents=1;" vertex="1" parent="xAenBVRVNPLRJ9-VDzcM-3">
                    <mxGeometry x="240" width="60" height="40" as="geometry">
                        <mxRectangle width="60" height="40" as="alternateBounds"/>
                    </mxGeometry>
                </mxCell>
                <mxCell id="xAenBVRVNPLRJ9-VDzcM-9" value="product" style="shape=partialRectangle;html=1;whiteSpace=wrap;connectable=0;overflow=hidden;fillColor=#6a00ff;top=0;left=0;bottom=0;right=0;pointerEvents=1;fontColor=#ffffff;strokeColor=#3700CC;" vertex="1" parent="xAenBVRVNPLRJ9-VDzcM-3">
                    <mxGeometry x="300" width="60" height="40" as="geometry">
                        <mxRectangle width="60" height="40" as="alternateBounds"/>
                    </mxGeometry>
                </mxCell>
                <mxCell id="xAenBVRVNPLRJ9-VDzcM-10" value="" style="endArrow=classic;html=1;exitX=1;exitY=0.75;exitDx=0;exitDy=0;entryX=0.04;entryY=1.017;entryDx=0;entryDy=0;entryPerimeter=0;" edge="1" parent="1" source="xAenBVRVNPLRJ9-VDzcM-2" target="EzThDuLHk-tmeXsB31Vt-129">
                    <mxGeometry width="50" height="50" relative="1" as="geometry">
                        <mxPoint x="-75" y="672.5" as="sourcePoint"/>
                        <mxPoint x="-690.3" y="173.84000000000003" as="targetPoint"/>
                        <Array as="points">
                            <mxPoint x="10" y="933"/>
                            <mxPoint x="12" y="670"/>
                            <mxPoint x="14" y="540"/>
                            <mxPoint x="17" y="417"/>
                            <mxPoint x="-216" y="417"/>
                            <mxPoint x="-588" y="419"/>
                            <mxPoint x="-719" y="417"/>
                        </Array>
                    </mxGeometry>
                </mxCell>
            </root>
        </mxGraphModel>
    </diagram>
    <diagram id="0cZhkgFEzof1xqFrsNd_" name="ClassDigram">
        <mxGraphModel dx="2904" dy="1309" grid="0" gridSize="10" guides="0" tooltips="1" connect="0" arrows="0" fold="1" page="0" pageScale="1" pageWidth="1100" pageHeight="850" background="none" math="0" shadow="0">
            <root>
                <mxCell id="0"/>
                <mxCell id="1" parent="0"/>
                <mxCell id="1MbCygZeeLemg4lFdXC7-1" value="" style="edgeStyle=entityRelationEdgeStyle;fontSize=12;html=1;endArrow=ERzeroToMany;startArrow=ERmandOne;fontFamily=Helvetica;fontColor=rgb(240, 240, 240);entryX=0.006;entryY=0.508;entryDx=0;entryDy=0;entryPerimeter=0;exitX=1.011;exitY=0.496;exitDx=0;exitDy=0;exitPerimeter=0;" edge="1" parent="1" source="8t855Lhe_C1THvjJZFFG-2" target="Mvcls2_Yj3mMzUqsqHgS-15">
                    <mxGeometry width="100" height="100" relative="1" as="geometry">
                        <mxPoint x="59.5" y="114" as="sourcePoint"/>
                        <mxPoint x="159.5" y="14" as="targetPoint"/>
                    </mxGeometry>
                </mxCell>
                <mxCell id="1MbCygZeeLemg4lFdXC7-2" value="" style="group;" vertex="1" connectable="0" parent="1">
                    <mxGeometry x="-877" y="-285" width="183" height="480" as="geometry"/>
                </mxCell>
                <mxCell id="8t855Lhe_C1THvjJZFFG-1" value="users" style="shape=table;startSize=30;container=1;collapsible=0;childLayout=tableLayout;fixedRows=1;rowLines=0;fontStyle=1;shadow=0;labelBackgroundColor=none;labelBorderColor=none;fillStyle=zigzag-line;strokeColor=#ffffff;strokeWidth=4;fillColor=default;gradientColor=none;html=1;fontColor=default;whiteSpace=wrap;spacingTop=0;swimlaneFillColor=none;" vertex="1" parent="1MbCygZeeLemg4lFdXC7-2">
                    <mxGeometry x="1.5" width="180" height="480" as="geometry"/>
                </mxCell>
                <mxCell id="8t855Lhe_C1THvjJZFFG-2" value="" style="shape=tableRow;horizontal=0;startSize=0;swimlaneHead=0;swimlaneBody=0;top=0;left=0;bottom=0;right=0;collapsible=0;dropTarget=0;fillColor=none;points=[[0,0.5],[1,0.5]];portConstraint=eastwest;shadow=0;labelBackgroundColor=none;labelBorderColor=none;fillStyle=zigzag-line;strokeColor=#0a0000;strokeWidth=15;html=0;" vertex="1" parent="8t855Lhe_C1THvjJZFFG-1">
                    <mxGeometry y="30" width="180" height="30" as="geometry"/>
                </mxCell>
                <mxCell id="8t855Lhe_C1THvjJZFFG-3" value="PK" style="shape=partialRectangle;html=1;whiteSpace=wrap;connectable=0;fillColor=none;top=0;left=0;bottom=0;right=0;overflow=hidden;pointerEvents=1;shadow=0;labelBackgroundColor=none;labelBorderColor=none;fillStyle=zigzag-line;strokeColor=#0a0000;strokeWidth=15;" vertex="1" parent="8t855Lhe_C1THvjJZFFG-2">
                    <mxGeometry width="43" height="30" as="geometry">
                        <mxRectangle width="43" height="30" as="alternateBounds"/>
                    </mxGeometry>
                </mxCell>
                <mxCell id="8t855Lhe_C1THvjJZFFG-4" value="_id : ObjectId" style="shape=partialRectangle;html=1;whiteSpace=wrap;connectable=0;fillColor=none;top=0;left=0;bottom=0;right=0;align=left;spacingLeft=6;overflow=hidden;shadow=0;labelBackgroundColor=none;labelBorderColor=none;fillStyle=zigzag-line;strokeColor=#0a0000;strokeWidth=15;" vertex="1" parent="8t855Lhe_C1THvjJZFFG-2">
                    <mxGeometry x="43" width="137" height="30" as="geometry">
                        <mxRectangle width="137" height="30" as="alternateBounds"/>
                    </mxGeometry>
                </mxCell>
                <mxCell id="8t855Lhe_C1THvjJZFFG-5" value="" style="shape=tableRow;horizontal=0;startSize=0;swimlaneHead=0;swimlaneBody=0;top=0;left=0;bottom=0;right=0;collapsible=0;dropTarget=0;fillColor=none;points=[[0,0.5],[1,0.5]];portConstraint=eastwest;shadow=0;labelBackgroundColor=none;labelBorderColor=none;fillStyle=zigzag-line;strokeColor=#0a0000;strokeWidth=15;html=0;" vertex="1" parent="8t855Lhe_C1THvjJZFFG-1">
                    <mxGeometry y="60" width="180" height="30" as="geometry"/>
                </mxCell>
                <mxCell id="8t855Lhe_C1THvjJZFFG-6" value="-" style="shape=partialRectangle;html=1;whiteSpace=wrap;connectable=0;fillColor=none;top=0;left=0;bottom=0;right=0;overflow=hidden;shadow=0;labelBackgroundColor=none;labelBorderColor=none;fillStyle=zigzag-line;strokeColor=#0a0000;strokeWidth=15;" vertex="1" parent="8t855Lhe_C1THvjJZFFG-5">
                    <mxGeometry width="43" height="30" as="geometry">
                        <mxRectangle width="43" height="30" as="alternateBounds"/>
                    </mxGeometry>
                </mxCell>
                <mxCell id="8t855Lhe_C1THvjJZFFG-7" value="name : String" style="shape=partialRectangle;html=1;whiteSpace=wrap;connectable=0;fillColor=none;top=0;left=0;bottom=0;right=0;align=left;spacingLeft=6;overflow=hidden;shadow=0;labelBackgroundColor=none;labelBorderColor=none;fillStyle=zigzag-line;strokeColor=#0a0000;strokeWidth=15;" vertex="1" parent="8t855Lhe_C1THvjJZFFG-5">
                    <mxGeometry x="43" width="137" height="30" as="geometry">
                        <mxRectangle width="137" height="30" as="alternateBounds"/>
                    </mxGeometry>
                </mxCell>
                <mxCell id="8t855Lhe_C1THvjJZFFG-8" value="" style="shape=tableRow;horizontal=0;startSize=0;swimlaneHead=0;swimlaneBody=0;top=0;left=0;bottom=0;right=0;collapsible=0;dropTarget=0;fillColor=none;points=[[0,0.5],[1,0.5]];portConstraint=eastwest;shadow=0;labelBackgroundColor=none;labelBorderColor=none;fillStyle=zigzag-line;strokeColor=#0a0000;strokeWidth=15;html=0;" vertex="1" parent="8t855Lhe_C1THvjJZFFG-1">
                    <mxGeometry y="90" width="180" height="30" as="geometry"/>
                </mxCell>
                <mxCell id="8t855Lhe_C1THvjJZFFG-9" value="-" style="shape=partialRectangle;html=1;whiteSpace=wrap;connectable=0;fillColor=none;top=0;left=0;bottom=0;right=0;overflow=hidden;shadow=0;labelBackgroundColor=none;labelBorderColor=none;fillStyle=zigzag-line;strokeColor=#0a0000;strokeWidth=15;" vertex="1" parent="8t855Lhe_C1THvjJZFFG-8">
                    <mxGeometry width="43" height="30" as="geometry">
                        <mxRectangle width="43" height="30" as="alternateBounds"/>
                    </mxGeometry>
                </mxCell>
                <mxCell id="8t855Lhe_C1THvjJZFFG-10" value="email : String" style="shape=partialRectangle;html=1;whiteSpace=wrap;connectable=0;fillColor=none;top=0;left=0;bottom=0;right=0;align=left;spacingLeft=6;overflow=hidden;shadow=0;labelBackgroundColor=none;labelBorderColor=none;fillStyle=zigzag-line;strokeColor=#0a0000;strokeWidth=15;" vertex="1" parent="8t855Lhe_C1THvjJZFFG-8">
                    <mxGeometry x="43" width="137" height="30" as="geometry">
                        <mxRectangle width="137" height="30" as="alternateBounds"/>
                    </mxGeometry>
                </mxCell>
                <mxCell id="8t855Lhe_C1THvjJZFFG-11" style="shape=tableRow;horizontal=0;startSize=0;swimlaneHead=0;swimlaneBody=0;top=0;left=0;bottom=0;right=0;collapsible=0;dropTarget=0;fillColor=none;points=[[0,0.5],[1,0.5]];portConstraint=eastwest;shadow=0;labelBackgroundColor=none;labelBorderColor=none;fillStyle=zigzag-line;strokeColor=#0a0000;strokeWidth=15;html=0;" vertex="1" parent="8t855Lhe_C1THvjJZFFG-1">
                    <mxGeometry y="120" width="180" height="30" as="geometry"/>
                </mxCell>
                <mxCell id="8t855Lhe_C1THvjJZFFG-12" value="-" style="shape=partialRectangle;html=1;whiteSpace=wrap;connectable=0;fillColor=none;top=0;left=0;bottom=0;right=0;overflow=hidden;shadow=0;labelBackgroundColor=none;labelBorderColor=none;fillStyle=zigzag-line;strokeColor=#0a0000;strokeWidth=15;" vertex="1" parent="8t855Lhe_C1THvjJZFFG-11">
                    <mxGeometry width="43" height="30" as="geometry">
                        <mxRectangle width="43" height="30" as="alternateBounds"/>
                    </mxGeometry>
                </mxCell>
                <mxCell id="8t855Lhe_C1THvjJZFFG-13" value="password : String" style="shape=partialRectangle;html=1;whiteSpace=wrap;connectable=0;fillColor=none;top=0;left=0;bottom=0;right=0;align=left;spacingLeft=6;overflow=hidden;shadow=0;labelBackgroundColor=none;labelBorderColor=none;fillStyle=zigzag-line;strokeColor=#0a0000;strokeWidth=15;" vertex="1" parent="8t855Lhe_C1THvjJZFFG-11">
                    <mxGeometry x="43" width="137" height="30" as="geometry">
                        <mxRectangle width="137" height="30" as="alternateBounds"/>
                    </mxGeometry>
                </mxCell>
                <mxCell id="8t855Lhe_C1THvjJZFFG-14" style="shape=tableRow;horizontal=0;startSize=0;swimlaneHead=0;swimlaneBody=0;top=0;left=0;bottom=0;right=0;collapsible=0;dropTarget=0;fillColor=none;points=[[0,0.5],[1,0.5]];portConstraint=eastwest;shadow=0;labelBackgroundColor=none;labelBorderColor=none;fillStyle=zigzag-line;strokeColor=#0a0000;strokeWidth=15;html=0;" vertex="1" parent="8t855Lhe_C1THvjJZFFG-1">
                    <mxGeometry y="150" width="180" height="30" as="geometry"/>
                </mxCell>
                <mxCell id="8t855Lhe_C1THvjJZFFG-15" value="-" style="shape=partialRectangle;html=1;whiteSpace=wrap;connectable=0;fillColor=none;top=0;left=0;bottom=0;right=0;overflow=hidden;shadow=0;labelBackgroundColor=none;labelBorderColor=none;fillStyle=zigzag-line;strokeColor=#0a0000;strokeWidth=15;" vertex="1" parent="8t855Lhe_C1THvjJZFFG-14">
                    <mxGeometry width="43" height="30" as="geometry">
                        <mxRectangle width="43" height="30" as="alternateBounds"/>
                    </mxGeometry>
                </mxCell>
                <mxCell id="8t855Lhe_C1THvjJZFFG-16" value="isAdmin : Boolean" style="shape=partialRectangle;html=1;whiteSpace=wrap;connectable=0;fillColor=none;top=0;left=0;bottom=0;right=0;align=left;spacingLeft=6;overflow=hidden;shadow=0;labelBackgroundColor=none;labelBorderColor=none;fillStyle=zigzag-line;strokeColor=#0a0000;strokeWidth=15;" vertex="1" parent="8t855Lhe_C1THvjJZFFG-14">
                    <mxGeometry x="43" width="137" height="30" as="geometry">
                        <mxRectangle width="137" height="30" as="alternateBounds"/>
                    </mxGeometry>
                </mxCell>
                <mxCell id="8t855Lhe_C1THvjJZFFG-21" style="shape=tableRow;horizontal=0;startSize=0;swimlaneHead=0;swimlaneBody=0;top=0;left=0;bottom=0;right=0;collapsible=0;dropTarget=0;fillColor=none;points=[[0,0.5],[1,0.5]];portConstraint=eastwest;shadow=0;labelBackgroundColor=none;labelBorderColor=none;fillStyle=zigzag-line;strokeColor=#0a0000;strokeWidth=15;html=0;" vertex="1" parent="8t855Lhe_C1THvjJZFFG-1">
                    <mxGeometry y="180" width="180" height="30" as="geometry"/>
                </mxCell>
                <mxCell id="8t855Lhe_C1THvjJZFFG-22" value="-" style="shape=partialRectangle;html=1;whiteSpace=wrap;connectable=0;fillColor=none;top=0;left=0;bottom=0;right=0;overflow=hidden;shadow=0;labelBackgroundColor=none;labelBorderColor=none;fillStyle=zigzag-line;strokeColor=#0a0000;strokeWidth=15;" vertex="1" parent="8t855Lhe_C1THvjJZFFG-21">
                    <mxGeometry width="43" height="30" as="geometry">
                        <mxRectangle width="43" height="30" as="alternateBounds"/>
                    </mxGeometry>
                </mxCell>
                <mxCell id="8t855Lhe_C1THvjJZFFG-23" value="timeStamp : Date" style="shape=partialRectangle;html=1;whiteSpace=wrap;connectable=0;fillColor=none;top=0;left=0;bottom=0;right=0;align=left;spacingLeft=6;overflow=hidden;shadow=0;labelBackgroundColor=none;labelBorderColor=none;fillStyle=zigzag-line;strokeColor=#0a0000;strokeWidth=15;" vertex="1" parent="8t855Lhe_C1THvjJZFFG-21">
                    <mxGeometry x="43" width="137" height="30" as="geometry">
                        <mxRectangle width="137" height="30" as="alternateBounds"/>
                    </mxGeometry>
                </mxCell>
                <mxCell id="8t855Lhe_C1THvjJZFFG-17" style="shape=tableRow;horizontal=0;startSize=0;swimlaneHead=0;swimlaneBody=0;top=0;left=0;bottom=0;right=0;collapsible=0;dropTarget=0;fillColor=none;points=[[0,0.5],[1,0.5]];portConstraint=eastwest;shadow=0;labelBackgroundColor=none;labelBorderColor=none;fillStyle=zigzag-line;strokeColor=#0a0000;strokeWidth=15;html=0;" vertex="1" parent="8t855Lhe_C1THvjJZFFG-1">
                    <mxGeometry y="210" width="180" height="30" as="geometry"/>
                </mxCell>
                <mxCell id="8t855Lhe_C1THvjJZFFG-18" value="+" style="shape=partialRectangle;html=1;whiteSpace=wrap;connectable=0;fillColor=none;top=0;left=0;bottom=0;right=0;overflow=hidden;shadow=0;labelBackgroundColor=none;labelBorderColor=none;fillStyle=zigzag-line;strokeColor=#0a0000;strokeWidth=15;" vertex="1" parent="8t855Lhe_C1THvjJZFFG-17">
                    <mxGeometry width="43" height="30" as="geometry">
                        <mxRectangle width="43" height="30" as="alternateBounds"/>
                    </mxGeometry>
                </mxCell>
                <mxCell id="8t855Lhe_C1THvjJZFFG-19" value="registerUser( )" style="shape=partialRectangle;html=1;whiteSpace=wrap;connectable=0;fillColor=none;top=0;left=0;bottom=0;right=0;align=left;spacingLeft=6;overflow=hidden;shadow=0;labelBackgroundColor=none;labelBorderColor=none;fillStyle=zigzag-line;strokeColor=#0a0000;strokeWidth=15;" vertex="1" parent="8t855Lhe_C1THvjJZFFG-17">
                    <mxGeometry x="43" width="137" height="30" as="geometry">
                        <mxRectangle width="137" height="30" as="alternateBounds"/>
                    </mxGeometry>
                </mxCell>
                <mxCell id="8t855Lhe_C1THvjJZFFG-39" style="shape=tableRow;horizontal=0;startSize=0;swimlaneHead=0;swimlaneBody=0;top=0;left=0;bottom=0;right=0;collapsible=0;dropTarget=0;fillColor=none;points=[[0,0.5],[1,0.5]];portConstraint=eastwest;shadow=0;labelBackgroundColor=none;labelBorderColor=none;fillStyle=zigzag-line;strokeColor=#0a0000;strokeWidth=15;html=0;" vertex="1" parent="8t855Lhe_C1THvjJZFFG-1">
                    <mxGeometry y="240" width="180" height="30" as="geometry"/>
                </mxCell>
                <mxCell id="8t855Lhe_C1THvjJZFFG-40" value="+" style="shape=partialRectangle;html=1;whiteSpace=wrap;connectable=0;fillColor=none;top=0;left=0;bottom=0;right=0;overflow=hidden;shadow=0;labelBackgroundColor=none;labelBorderColor=none;fillStyle=zigzag-line;strokeColor=#0a0000;strokeWidth=15;" vertex="1" parent="8t855Lhe_C1THvjJZFFG-39">
                    <mxGeometry width="43" height="30" as="geometry">
                        <mxRectangle width="43" height="30" as="alternateBounds"/>
                    </mxGeometry>
                </mxCell>
                <mxCell id="8t855Lhe_C1THvjJZFFG-41" value="getUser( )" style="shape=partialRectangle;html=1;whiteSpace=wrap;connectable=0;fillColor=none;top=0;left=0;bottom=0;right=0;align=left;spacingLeft=6;overflow=hidden;shadow=0;labelBackgroundColor=none;labelBorderColor=none;fillStyle=zigzag-line;strokeColor=#0a0000;strokeWidth=15;" vertex="1" parent="8t855Lhe_C1THvjJZFFG-39">
                    <mxGeometry x="43" width="137" height="30" as="geometry">
                        <mxRectangle width="137" height="30" as="alternateBounds"/>
                    </mxGeometry>
                </mxCell>
                <mxCell id="8t855Lhe_C1THvjJZFFG-36" style="shape=tableRow;horizontal=0;startSize=0;swimlaneHead=0;swimlaneBody=0;top=0;left=0;bottom=0;right=0;collapsible=0;dropTarget=0;fillColor=none;points=[[0,0.5],[1,0.5]];portConstraint=eastwest;shadow=0;labelBackgroundColor=none;labelBorderColor=none;fillStyle=zigzag-line;strokeColor=#0a0000;strokeWidth=15;html=0;" vertex="1" parent="8t855Lhe_C1THvjJZFFG-1">
                    <mxGeometry y="270" width="180" height="30" as="geometry"/>
                </mxCell>
                <mxCell id="8t855Lhe_C1THvjJZFFG-37" value="+" style="shape=partialRectangle;html=1;whiteSpace=wrap;connectable=0;fillColor=none;top=0;left=0;bottom=0;right=0;overflow=hidden;shadow=0;labelBackgroundColor=none;labelBorderColor=none;fillStyle=zigzag-line;strokeColor=#0a0000;strokeWidth=15;" vertex="1" parent="8t855Lhe_C1THvjJZFFG-36">
                    <mxGeometry width="43" height="30" as="geometry">
                        <mxRectangle width="43" height="30" as="alternateBounds"/>
                    </mxGeometry>
                </mxCell>
                <mxCell id="8t855Lhe_C1THvjJZFFG-38" value="authUser( )" style="shape=partialRectangle;html=1;whiteSpace=wrap;connectable=0;fillColor=none;top=0;left=0;bottom=0;right=0;align=left;spacingLeft=6;overflow=hidden;shadow=0;labelBackgroundColor=none;labelBorderColor=none;fillStyle=zigzag-line;strokeColor=#0a0000;strokeWidth=15;" vertex="1" parent="8t855Lhe_C1THvjJZFFG-36">
                    <mxGeometry x="43" width="137" height="30" as="geometry">
                        <mxRectangle width="137" height="30" as="alternateBounds"/>
                    </mxGeometry>
                </mxCell>
                <mxCell id="8t855Lhe_C1THvjJZFFG-33" style="shape=tableRow;horizontal=0;startSize=0;swimlaneHead=0;swimlaneBody=0;top=0;left=0;bottom=0;right=0;collapsible=0;dropTarget=0;fillColor=none;points=[[0,0.5],[1,0.5]];portConstraint=eastwest;shadow=0;labelBackgroundColor=none;labelBorderColor=none;fillStyle=zigzag-line;strokeColor=#0a0000;strokeWidth=15;html=0;" vertex="1" parent="8t855Lhe_C1THvjJZFFG-1">
                    <mxGeometry y="300" width="180" height="30" as="geometry"/>
                </mxCell>
                <mxCell id="8t855Lhe_C1THvjJZFFG-34" value="+" style="shape=partialRectangle;html=1;whiteSpace=wrap;connectable=0;fillColor=none;top=0;left=0;bottom=0;right=0;overflow=hidden;shadow=0;labelBackgroundColor=none;labelBorderColor=none;fillStyle=zigzag-line;strokeColor=#0a0000;strokeWidth=15;" vertex="1" parent="8t855Lhe_C1THvjJZFFG-33">
                    <mxGeometry width="43" height="30" as="geometry">
                        <mxRectangle width="43" height="30" as="alternateBounds"/>
                    </mxGeometry>
                </mxCell>
                <mxCell id="8t855Lhe_C1THvjJZFFG-35" value="logOutUser( )" style="shape=partialRectangle;html=1;whiteSpace=wrap;connectable=0;fillColor=none;top=0;left=0;bottom=0;right=0;align=left;spacingLeft=6;overflow=hidden;shadow=0;labelBackgroundColor=none;labelBorderColor=none;fillStyle=zigzag-line;strokeColor=#0a0000;strokeWidth=15;" vertex="1" parent="8t855Lhe_C1THvjJZFFG-33">
                    <mxGeometry x="43" width="137" height="30" as="geometry">
                        <mxRectangle width="137" height="30" as="alternateBounds"/>
                    </mxGeometry>
                </mxCell>
                <mxCell id="8t855Lhe_C1THvjJZFFG-30" style="shape=tableRow;horizontal=0;startSize=0;swimlaneHead=0;swimlaneBody=0;top=0;left=0;bottom=0;right=0;collapsible=0;dropTarget=0;fillColor=none;points=[[0,0.5],[1,0.5]];portConstraint=eastwest;shadow=0;labelBackgroundColor=none;labelBorderColor=none;fillStyle=zigzag-line;strokeColor=#0a0000;strokeWidth=15;html=0;" vertex="1" parent="8t855Lhe_C1THvjJZFFG-1">
                    <mxGeometry y="330" width="180" height="30" as="geometry"/>
                </mxCell>
                <mxCell id="8t855Lhe_C1THvjJZFFG-31" value="+" style="shape=partialRectangle;html=1;whiteSpace=wrap;connectable=0;fillColor=none;top=0;left=0;bottom=0;right=0;overflow=hidden;shadow=0;labelBackgroundColor=none;labelBorderColor=none;fillStyle=zigzag-line;strokeColor=#0a0000;strokeWidth=15;" vertex="1" parent="8t855Lhe_C1THvjJZFFG-30">
                    <mxGeometry width="43" height="30" as="geometry">
                        <mxRectangle width="43" height="30" as="alternateBounds"/>
                    </mxGeometry>
                </mxCell>
                <mxCell id="8t855Lhe_C1THvjJZFFG-32" value="Get User Profile( )" style="shape=partialRectangle;html=1;whiteSpace=wrap;connectable=0;fillColor=none;top=0;left=0;bottom=0;right=0;align=left;spacingLeft=6;overflow=hidden;shadow=0;labelBackgroundColor=none;labelBorderColor=none;fillStyle=zigzag-line;strokeColor=#0a0000;strokeWidth=15;" vertex="1" parent="8t855Lhe_C1THvjJZFFG-30">
                    <mxGeometry x="43" width="137" height="30" as="geometry">
                        <mxRectangle width="137" height="30" as="alternateBounds"/>
                    </mxGeometry>
                </mxCell>
                <mxCell id="8t855Lhe_C1THvjJZFFG-27" style="shape=tableRow;horizontal=0;startSize=0;swimlaneHead=0;swimlaneBody=0;top=0;left=0;bottom=0;right=0;collapsible=0;dropTarget=0;fillColor=none;points=[[0,0.5],[1,0.5]];portConstraint=eastwest;shadow=0;labelBackgroundColor=none;labelBorderColor=none;fillStyle=zigzag-line;strokeColor=#0a0000;strokeWidth=15;html=0;" vertex="1" parent="8t855Lhe_C1THvjJZFFG-1">
                    <mxGeometry y="360" width="180" height="30" as="geometry"/>
                </mxCell>
                <mxCell id="8t855Lhe_C1THvjJZFFG-28" value="+" style="shape=partialRectangle;html=1;whiteSpace=wrap;connectable=0;fillColor=none;top=0;left=0;bottom=0;right=0;overflow=hidden;shadow=0;labelBackgroundColor=none;labelBorderColor=none;fillStyle=zigzag-line;strokeColor=#0a0000;strokeWidth=15;" vertex="1" parent="8t855Lhe_C1THvjJZFFG-27">
                    <mxGeometry width="43" height="30" as="geometry">
                        <mxRectangle width="43" height="30" as="alternateBounds"/>
                    </mxGeometry>
                </mxCell>
                <mxCell id="8t855Lhe_C1THvjJZFFG-29" value="Update User Profile( )" style="shape=partialRectangle;html=1;whiteSpace=wrap;connectable=0;fillColor=none;top=0;left=0;bottom=0;right=0;align=left;spacingLeft=6;overflow=hidden;shadow=0;labelBackgroundColor=none;labelBorderColor=none;fillStyle=zigzag-line;strokeColor=#0a0000;strokeWidth=15;" vertex="1" parent="8t855Lhe_C1THvjJZFFG-27">
                    <mxGeometry x="43" width="137" height="30" as="geometry">
                        <mxRectangle width="137" height="30" as="alternateBounds"/>
                    </mxGeometry>
                </mxCell>
                <mxCell id="8t855Lhe_C1THvjJZFFG-24" style="shape=tableRow;horizontal=0;startSize=0;swimlaneHead=0;swimlaneBody=0;top=0;left=0;bottom=0;right=0;collapsible=0;dropTarget=0;fillColor=none;points=[[0,0.5],[1,0.5]];portConstraint=eastwest;shadow=0;labelBackgroundColor=none;labelBorderColor=none;fillStyle=zigzag-line;strokeColor=#0a0000;strokeWidth=15;html=0;" vertex="1" parent="8t855Lhe_C1THvjJZFFG-1">
                    <mxGeometry y="390" width="180" height="30" as="geometry"/>
                </mxCell>
                <mxCell id="8t855Lhe_C1THvjJZFFG-25" value="+" style="shape=partialRectangle;html=1;whiteSpace=wrap;connectable=0;fillColor=none;top=0;left=0;bottom=0;right=0;overflow=hidden;shadow=0;labelBackgroundColor=none;labelBorderColor=none;fillStyle=zigzag-line;strokeColor=#0a0000;strokeWidth=15;" vertex="1" parent="8t855Lhe_C1THvjJZFFG-24">
                    <mxGeometry width="43" height="30" as="geometry">
                        <mxRectangle width="43" height="30" as="alternateBounds"/>
                    </mxGeometry>
                </mxCell>
                <mxCell id="8t855Lhe_C1THvjJZFFG-26" value="Delete User ( )" style="shape=partialRectangle;html=1;whiteSpace=wrap;connectable=0;fillColor=none;top=0;left=0;bottom=0;right=0;align=left;spacingLeft=6;overflow=hidden;shadow=0;labelBackgroundColor=none;labelBorderColor=none;fillStyle=zigzag-line;strokeColor=#0a0000;strokeWidth=15;" vertex="1" parent="8t855Lhe_C1THvjJZFFG-24">
                    <mxGeometry x="43" width="137" height="30" as="geometry">
                        <mxRectangle width="137" height="30" as="alternateBounds"/>
                    </mxGeometry>
                </mxCell>
                <mxCell id="8t855Lhe_C1THvjJZFFG-42" style="shape=tableRow;horizontal=0;startSize=0;swimlaneHead=0;swimlaneBody=0;top=0;left=0;bottom=0;right=0;collapsible=0;dropTarget=0;fillColor=none;points=[[0,0.5],[1,0.5]];portConstraint=eastwest;shadow=0;labelBackgroundColor=none;labelBorderColor=none;fillStyle=zigzag-line;strokeColor=#0a0000;strokeWidth=15;html=0;" vertex="1" parent="8t855Lhe_C1THvjJZFFG-1">
                    <mxGeometry y="420" width="180" height="30" as="geometry"/>
                </mxCell>
                <mxCell id="8t855Lhe_C1THvjJZFFG-43" value="+" style="shape=partialRectangle;html=1;whiteSpace=wrap;connectable=0;fillColor=none;top=0;left=0;bottom=0;right=0;overflow=hidden;shadow=0;labelBackgroundColor=none;labelBorderColor=none;fillStyle=zigzag-line;strokeColor=#0a0000;strokeWidth=15;" vertex="1" parent="8t855Lhe_C1THvjJZFFG-42">
                    <mxGeometry width="43" height="30" as="geometry">
                        <mxRectangle width="43" height="30" as="alternateBounds"/>
                    </mxGeometry>
                </mxCell>
                <mxCell id="8t855Lhe_C1THvjJZFFG-44" value="Get User ById ( )" style="shape=partialRectangle;html=1;whiteSpace=wrap;connectable=0;fillColor=none;top=0;left=0;bottom=0;right=0;align=left;spacingLeft=6;overflow=hidden;shadow=0;labelBackgroundColor=none;labelBorderColor=none;fillStyle=zigzag-line;strokeColor=#0a0000;strokeWidth=15;" vertex="1" parent="8t855Lhe_C1THvjJZFFG-42">
                    <mxGeometry x="43" width="137" height="30" as="geometry">
                        <mxRectangle width="137" height="30" as="alternateBounds"/>
                    </mxGeometry>
                </mxCell>
                <mxCell id="8t855Lhe_C1THvjJZFFG-45" style="shape=tableRow;horizontal=0;startSize=0;swimlaneHead=0;swimlaneBody=0;top=0;left=0;bottom=0;right=0;collapsible=0;dropTarget=0;fillColor=none;points=[[0,0.5],[1,0.5]];portConstraint=eastwest;shadow=0;labelBackgroundColor=none;labelBorderColor=none;fillStyle=zigzag-line;strokeColor=#0a0000;strokeWidth=15;html=0;" vertex="1" parent="8t855Lhe_C1THvjJZFFG-1">
                    <mxGeometry y="450" width="180" height="30" as="geometry"/>
                </mxCell>
                <mxCell id="8t855Lhe_C1THvjJZFFG-46" value="+" style="shape=partialRectangle;html=1;whiteSpace=wrap;connectable=0;fillColor=none;top=0;left=0;bottom=0;right=0;overflow=hidden;shadow=0;labelBackgroundColor=none;labelBorderColor=none;fillStyle=zigzag-line;strokeColor=#0a0000;strokeWidth=15;" vertex="1" parent="8t855Lhe_C1THvjJZFFG-45">
                    <mxGeometry width="43" height="30" as="geometry">
                        <mxRectangle width="43" height="30" as="alternateBounds"/>
                    </mxGeometry>
                </mxCell>
                <mxCell id="8t855Lhe_C1THvjJZFFG-47" value="Update User ( )" style="shape=partialRectangle;html=1;whiteSpace=wrap;connectable=0;fillColor=none;top=0;left=0;bottom=0;right=0;align=left;spacingLeft=6;overflow=hidden;shadow=0;labelBackgroundColor=none;labelBorderColor=none;fillStyle=zigzag-line;strokeColor=#0a0000;strokeWidth=15;" vertex="1" parent="8t855Lhe_C1THvjJZFFG-45">
                    <mxGeometry x="43" width="137" height="30" as="geometry">
                        <mxRectangle width="137" height="30" as="alternateBounds"/>
                    </mxGeometry>
                </mxCell>
                <mxCell id="8t855Lhe_C1THvjJZFFG-20" value="" style="line;strokeWidth=2;html=1;shadow=0;labelBackgroundColor=none;labelBorderColor=none;fillStyle=zigzag-line;strokeColor=#FFFFFF;fillColor=default;gradientColor=none;" vertex="1" parent="1MbCygZeeLemg4lFdXC7-2">
                    <mxGeometry y="204" width="183" height="10" as="geometry"/>
                </mxCell>
                <mxCell id="1MbCygZeeLemg4lFdXC7-61" value="" style="group;" vertex="1" connectable="0" parent="1">
                    <mxGeometry x="-211" y="-308" width="324" height="621" as="geometry"/>
                </mxCell>
                <mxCell id="Mvcls2_Yj3mMzUqsqHgS-11" value="Products" style="shape=table;startSize=30;container=1;collapsible=0;childLayout=tableLayout;fixedRows=1;rowLines=0;fontStyle=1;shadow=0;labelBackgroundColor=none;labelBorderColor=none;fillStyle=zigzag-line;strokeColor=#ffffff;strokeWidth=4;fillColor=default;gradientColor=none;html=1;fontColor=default;whiteSpace=wrap;spacingTop=0;swimlaneFillColor=none;" vertex="1" parent="1MbCygZeeLemg4lFdXC7-61">
                    <mxGeometry x="3" width="277" height="621" as="geometry"/>
                </mxCell>
                <mxCell id="Mvcls2_Yj3mMzUqsqHgS-12" value="" style="shape=tableRow;horizontal=0;startSize=0;swimlaneHead=0;swimlaneBody=0;top=0;left=0;bottom=0;right=0;collapsible=0;dropTarget=0;fillColor=none;points=[[0,0.5],[1,0.5]];portConstraint=eastwest;shadow=0;labelBackgroundColor=none;labelBorderColor=none;fillStyle=zigzag-line;strokeColor=#0a0000;strokeWidth=15;html=0;" vertex="1" parent="Mvcls2_Yj3mMzUqsqHgS-11">
                    <mxGeometry y="30" width="277" height="30" as="geometry"/>
                </mxCell>
                <mxCell id="Mvcls2_Yj3mMzUqsqHgS-13" value="PK" style="shape=partialRectangle;html=1;whiteSpace=wrap;connectable=0;fillColor=none;top=0;left=0;bottom=0;right=0;overflow=hidden;pointerEvents=1;shadow=0;labelBackgroundColor=none;labelBorderColor=none;fillStyle=zigzag-line;strokeColor=#0a0000;strokeWidth=15;" vertex="1" parent="Mvcls2_Yj3mMzUqsqHgS-12">
                    <mxGeometry width="66" height="30" as="geometry">
                        <mxRectangle width="66" height="30" as="alternateBounds"/>
                    </mxGeometry>
                </mxCell>
                <mxCell id="Mvcls2_Yj3mMzUqsqHgS-14" value="_id : ObjectId" style="shape=partialRectangle;html=1;whiteSpace=wrap;connectable=0;fillColor=none;top=0;left=0;bottom=0;right=0;align=left;spacingLeft=6;overflow=hidden;shadow=0;labelBackgroundColor=none;labelBorderColor=none;fillStyle=zigzag-line;strokeColor=#0a0000;strokeWidth=15;" vertex="1" parent="Mvcls2_Yj3mMzUqsqHgS-12">
                    <mxGeometry x="66" width="211" height="30" as="geometry">
                        <mxRectangle width="211" height="30" as="alternateBounds"/>
                    </mxGeometry>
                </mxCell>
                <mxCell id="Mvcls2_Yj3mMzUqsqHgS-15" value="" style="shape=tableRow;horizontal=0;startSize=0;swimlaneHead=0;swimlaneBody=0;top=0;left=0;bottom=0;right=0;collapsible=0;dropTarget=0;fillColor=none;points=[[0,0.5],[1,0.5]];portConstraint=eastwest;shadow=0;labelBackgroundColor=none;labelBorderColor=none;fillStyle=zigzag-line;strokeColor=#0a0000;strokeWidth=15;html=0;" vertex="1" parent="Mvcls2_Yj3mMzUqsqHgS-11">
                    <mxGeometry y="60" width="277" height="30" as="geometry"/>
                </mxCell>
                <mxCell id="Mvcls2_Yj3mMzUqsqHgS-16" value="FK" style="shape=partialRectangle;html=1;whiteSpace=wrap;connectable=0;fillColor=none;top=0;left=0;bottom=0;right=0;overflow=hidden;shadow=0;labelBackgroundColor=none;labelBorderColor=none;fillStyle=zigzag-line;strokeColor=#0a0000;strokeWidth=15;" vertex="1" parent="Mvcls2_Yj3mMzUqsqHgS-15">
                    <mxGeometry width="66" height="30" as="geometry">
                        <mxRectangle width="66" height="30" as="alternateBounds"/>
                    </mxGeometry>
                </mxCell>
                <mxCell id="Mvcls2_Yj3mMzUqsqHgS-17" value="user : ObjectId" style="shape=partialRectangle;html=1;whiteSpace=wrap;connectable=0;fillColor=none;top=0;left=0;bottom=0;right=0;align=left;spacingLeft=6;overflow=hidden;shadow=0;labelBackgroundColor=none;labelBorderColor=none;fillStyle=zigzag-line;strokeColor=#0a0000;strokeWidth=15;" vertex="1" parent="Mvcls2_Yj3mMzUqsqHgS-15">
                    <mxGeometry x="66" width="211" height="30" as="geometry">
                        <mxRectangle width="211" height="30" as="alternateBounds"/>
                    </mxGeometry>
                </mxCell>
                <mxCell id="Mvcls2_Yj3mMzUqsqHgS-18" value="" style="shape=tableRow;horizontal=0;startSize=0;swimlaneHead=0;swimlaneBody=0;top=0;left=0;bottom=0;right=0;collapsible=0;dropTarget=0;fillColor=none;points=[[0,0.5],[1,0.5]];portConstraint=eastwest;shadow=0;labelBackgroundColor=none;labelBorderColor=none;fillStyle=zigzag-line;strokeColor=#0a0000;strokeWidth=15;html=0;" vertex="1" parent="Mvcls2_Yj3mMzUqsqHgS-11">
                    <mxGeometry y="90" width="277" height="30" as="geometry"/>
                </mxCell>
                <mxCell id="Mvcls2_Yj3mMzUqsqHgS-19" value="-" style="shape=partialRectangle;html=1;whiteSpace=wrap;connectable=0;fillColor=none;top=0;left=0;bottom=0;right=0;overflow=hidden;shadow=0;labelBackgroundColor=none;labelBorderColor=none;fillStyle=zigzag-line;strokeColor=#0a0000;strokeWidth=15;" vertex="1" parent="Mvcls2_Yj3mMzUqsqHgS-18">
                    <mxGeometry width="66" height="30" as="geometry">
                        <mxRectangle width="66" height="30" as="alternateBounds"/>
                    </mxGeometry>
                </mxCell>
                <mxCell id="Mvcls2_Yj3mMzUqsqHgS-20" value="name : String" style="shape=partialRectangle;html=1;whiteSpace=wrap;connectable=0;fillColor=none;top=0;left=0;bottom=0;right=0;align=left;spacingLeft=6;overflow=hidden;shadow=0;labelBackgroundColor=none;labelBorderColor=none;fillStyle=zigzag-line;strokeColor=#0a0000;strokeWidth=15;" vertex="1" parent="Mvcls2_Yj3mMzUqsqHgS-18">
                    <mxGeometry x="66" width="211" height="30" as="geometry">
                        <mxRectangle width="211" height="30" as="alternateBounds"/>
                    </mxGeometry>
                </mxCell>
                <mxCell id="Mvcls2_Yj3mMzUqsqHgS-21" style="shape=tableRow;horizontal=0;startSize=0;swimlaneHead=0;swimlaneBody=0;top=0;left=0;bottom=0;right=0;collapsible=0;dropTarget=0;fillColor=none;points=[[0,0.5],[1,0.5]];portConstraint=eastwest;shadow=0;labelBackgroundColor=none;labelBorderColor=none;fillStyle=zigzag-line;strokeColor=#0a0000;strokeWidth=15;html=0;" vertex="1" parent="Mvcls2_Yj3mMzUqsqHgS-11">
                    <mxGeometry y="120" width="277" height="30" as="geometry"/>
                </mxCell>
                <mxCell id="Mvcls2_Yj3mMzUqsqHgS-22" value="-" style="shape=partialRectangle;html=1;whiteSpace=wrap;connectable=0;fillColor=none;top=0;left=0;bottom=0;right=0;overflow=hidden;shadow=0;labelBackgroundColor=none;labelBorderColor=none;fillStyle=zigzag-line;strokeColor=#0a0000;strokeWidth=15;" vertex="1" parent="Mvcls2_Yj3mMzUqsqHgS-21">
                    <mxGeometry width="66" height="30" as="geometry">
                        <mxRectangle width="66" height="30" as="alternateBounds"/>
                    </mxGeometry>
                </mxCell>
                <mxCell id="Mvcls2_Yj3mMzUqsqHgS-23" value="image : String" style="shape=partialRectangle;html=1;whiteSpace=wrap;connectable=0;fillColor=none;top=0;left=0;bottom=0;right=0;align=left;spacingLeft=6;overflow=hidden;shadow=0;labelBackgroundColor=none;labelBorderColor=none;fillStyle=zigzag-line;strokeColor=#0a0000;strokeWidth=15;" vertex="1" parent="Mvcls2_Yj3mMzUqsqHgS-21">
                    <mxGeometry x="66" width="211" height="30" as="geometry">
                        <mxRectangle width="211" height="30" as="alternateBounds"/>
                    </mxGeometry>
                </mxCell>
                <mxCell id="Mvcls2_Yj3mMzUqsqHgS-24" style="shape=tableRow;horizontal=0;startSize=0;swimlaneHead=0;swimlaneBody=0;top=0;left=0;bottom=0;right=0;collapsible=0;dropTarget=0;fillColor=none;points=[[0,0.5],[1,0.5]];portConstraint=eastwest;shadow=0;labelBackgroundColor=none;labelBorderColor=none;fillStyle=zigzag-line;strokeColor=#0a0000;strokeWidth=15;html=0;" vertex="1" parent="Mvcls2_Yj3mMzUqsqHgS-11">
                    <mxGeometry y="150" width="277" height="30" as="geometry"/>
                </mxCell>
                <mxCell id="Mvcls2_Yj3mMzUqsqHgS-25" value="-" style="shape=partialRectangle;html=1;whiteSpace=wrap;connectable=0;fillColor=none;top=0;left=0;bottom=0;right=0;overflow=hidden;shadow=0;labelBackgroundColor=none;labelBorderColor=none;fillStyle=zigzag-line;strokeColor=#0a0000;strokeWidth=15;" vertex="1" parent="Mvcls2_Yj3mMzUqsqHgS-24">
                    <mxGeometry width="66" height="30" as="geometry">
                        <mxRectangle width="66" height="30" as="alternateBounds"/>
                    </mxGeometry>
                </mxCell>
                <mxCell id="Mvcls2_Yj3mMzUqsqHgS-26" value="brand : String" style="shape=partialRectangle;html=1;whiteSpace=wrap;connectable=0;fillColor=none;top=0;left=0;bottom=0;right=0;align=left;spacingLeft=6;overflow=hidden;shadow=0;labelBackgroundColor=none;labelBorderColor=none;fillStyle=zigzag-line;strokeColor=#0a0000;strokeWidth=15;" vertex="1" parent="Mvcls2_Yj3mMzUqsqHgS-24">
                    <mxGeometry x="66" width="211" height="30" as="geometry">
                        <mxRectangle width="211" height="30" as="alternateBounds"/>
                    </mxGeometry>
                </mxCell>
                <mxCell id="Mvcls2_Yj3mMzUqsqHgS-27" style="shape=tableRow;horizontal=0;startSize=0;swimlaneHead=0;swimlaneBody=0;top=0;left=0;bottom=0;right=0;collapsible=0;dropTarget=0;fillColor=none;points=[[0,0.5],[1,0.5]];portConstraint=eastwest;shadow=0;labelBackgroundColor=none;labelBorderColor=none;fillStyle=zigzag-line;strokeColor=#0a0000;strokeWidth=15;html=0;" vertex="1" parent="Mvcls2_Yj3mMzUqsqHgS-11">
                    <mxGeometry y="180" width="277" height="30" as="geometry"/>
                </mxCell>
                <mxCell id="Mvcls2_Yj3mMzUqsqHgS-28" value="-" style="shape=partialRectangle;html=1;whiteSpace=wrap;connectable=0;fillColor=none;top=0;left=0;bottom=0;right=0;overflow=hidden;shadow=0;labelBackgroundColor=none;labelBorderColor=none;fillStyle=zigzag-line;strokeColor=#0a0000;strokeWidth=15;" vertex="1" parent="Mvcls2_Yj3mMzUqsqHgS-27">
                    <mxGeometry width="66" height="30" as="geometry">
                        <mxRectangle width="66" height="30" as="alternateBounds"/>
                    </mxGeometry>
                </mxCell>
                <mxCell id="Mvcls2_Yj3mMzUqsqHgS-29" value="category : String" style="shape=partialRectangle;html=1;whiteSpace=wrap;connectable=0;fillColor=none;top=0;left=0;bottom=0;right=0;align=left;spacingLeft=6;overflow=hidden;shadow=0;labelBackgroundColor=none;labelBorderColor=none;fillStyle=zigzag-line;strokeColor=#0a0000;strokeWidth=15;" vertex="1" parent="Mvcls2_Yj3mMzUqsqHgS-27">
                    <mxGeometry x="66" width="211" height="30" as="geometry">
                        <mxRectangle width="211" height="30" as="alternateBounds"/>
                    </mxGeometry>
                </mxCell>
                <mxCell id="Mvcls2_Yj3mMzUqsqHgS-30" style="shape=tableRow;horizontal=0;startSize=0;swimlaneHead=0;swimlaneBody=0;top=0;left=0;bottom=0;right=0;collapsible=0;dropTarget=0;fillColor=none;points=[[0,0.5],[1,0.5]];portConstraint=eastwest;shadow=0;labelBackgroundColor=none;labelBorderColor=none;fillStyle=zigzag-line;strokeColor=#0a0000;strokeWidth=15;html=0;" vertex="1" parent="Mvcls2_Yj3mMzUqsqHgS-11">
                    <mxGeometry y="210" width="277" height="30" as="geometry"/>
                </mxCell>
                <mxCell id="Mvcls2_Yj3mMzUqsqHgS-31" value="-" style="shape=partialRectangle;html=1;whiteSpace=wrap;connectable=0;fillColor=none;top=0;left=0;bottom=0;right=0;overflow=hidden;shadow=0;labelBackgroundColor=none;labelBorderColor=none;fillStyle=zigzag-line;strokeColor=#0a0000;strokeWidth=15;" vertex="1" parent="Mvcls2_Yj3mMzUqsqHgS-30">
                    <mxGeometry width="66" height="30" as="geometry">
                        <mxRectangle width="66" height="30" as="alternateBounds"/>
                    </mxGeometry>
                </mxCell>
                <mxCell id="Mvcls2_Yj3mMzUqsqHgS-32" value="description : String" style="shape=partialRectangle;html=1;whiteSpace=wrap;connectable=0;fillColor=none;top=0;left=0;bottom=0;right=0;align=left;spacingLeft=6;overflow=hidden;shadow=0;labelBackgroundColor=none;labelBorderColor=none;fillStyle=zigzag-line;strokeColor=#0a0000;strokeWidth=15;" vertex="1" parent="Mvcls2_Yj3mMzUqsqHgS-30">
                    <mxGeometry x="66" width="211" height="30" as="geometry">
                        <mxRectangle width="211" height="30" as="alternateBounds"/>
                    </mxGeometry>
                </mxCell>
                <mxCell id="Mvcls2_Yj3mMzUqsqHgS-33" style="shape=tableRow;horizontal=0;startSize=0;swimlaneHead=0;swimlaneBody=0;top=0;left=0;bottom=0;right=0;collapsible=0;dropTarget=0;fillColor=none;points=[[0,0.5],[1,0.5]];portConstraint=eastwest;shadow=0;labelBackgroundColor=none;labelBorderColor=none;fillStyle=zigzag-line;strokeColor=#0a0000;strokeWidth=15;html=0;" vertex="1" parent="Mvcls2_Yj3mMzUqsqHgS-11">
                    <mxGeometry y="240" width="277" height="30" as="geometry"/>
                </mxCell>
                <mxCell id="Mvcls2_Yj3mMzUqsqHgS-34" value="-" style="shape=partialRectangle;html=1;whiteSpace=wrap;connectable=0;fillColor=none;top=0;left=0;bottom=0;right=0;overflow=hidden;shadow=0;labelBackgroundColor=none;labelBorderColor=none;fillStyle=zigzag-line;strokeColor=#0a0000;strokeWidth=15;" vertex="1" parent="Mvcls2_Yj3mMzUqsqHgS-33">
                    <mxGeometry width="66" height="30" as="geometry">
                        <mxRectangle width="66" height="30" as="alternateBounds"/>
                    </mxGeometry>
                </mxCell>
                <mxCell id="Mvcls2_Yj3mMzUqsqHgS-35" value="rating : Double" style="shape=partialRectangle;html=1;whiteSpace=wrap;connectable=0;fillColor=none;top=0;left=0;bottom=0;right=0;align=left;spacingLeft=6;overflow=hidden;shadow=0;labelBackgroundColor=none;labelBorderColor=none;fillStyle=zigzag-line;strokeColor=#0a0000;strokeWidth=15;" vertex="1" parent="Mvcls2_Yj3mMzUqsqHgS-33">
                    <mxGeometry x="66" width="211" height="30" as="geometry">
                        <mxRectangle width="211" height="30" as="alternateBounds"/>
                    </mxGeometry>
                </mxCell>
                <mxCell id="Mvcls2_Yj3mMzUqsqHgS-36" style="shape=tableRow;horizontal=0;startSize=0;swimlaneHead=0;swimlaneBody=0;top=0;left=0;bottom=0;right=0;collapsible=0;dropTarget=0;fillColor=none;points=[[0,0.5],[1,0.5]];portConstraint=eastwest;shadow=0;labelBackgroundColor=none;labelBorderColor=none;fillStyle=zigzag-line;strokeColor=#0a0000;strokeWidth=15;html=0;" vertex="1" parent="Mvcls2_Yj3mMzUqsqHgS-11">
                    <mxGeometry y="270" width="277" height="30" as="geometry"/>
                </mxCell>
                <mxCell id="Mvcls2_Yj3mMzUqsqHgS-37" value="-" style="shape=partialRectangle;html=1;whiteSpace=wrap;connectable=0;fillColor=none;top=0;left=0;bottom=0;right=0;overflow=hidden;shadow=0;labelBackgroundColor=none;labelBorderColor=none;fillStyle=zigzag-line;strokeColor=#0a0000;strokeWidth=15;" vertex="1" parent="Mvcls2_Yj3mMzUqsqHgS-36">
                    <mxGeometry width="66" height="30" as="geometry">
                        <mxRectangle width="66" height="30" as="alternateBounds"/>
                    </mxGeometry>
                </mxCell>
                <mxCell id="Mvcls2_Yj3mMzUqsqHgS-38" value="numReviews : Int32" style="shape=partialRectangle;html=1;whiteSpace=wrap;connectable=0;fillColor=none;top=0;left=0;bottom=0;right=0;align=left;spacingLeft=6;overflow=hidden;shadow=0;labelBackgroundColor=none;labelBorderColor=none;fillStyle=zigzag-line;strokeColor=#0a0000;strokeWidth=15;" vertex="1" parent="Mvcls2_Yj3mMzUqsqHgS-36">
                    <mxGeometry x="66" width="211" height="30" as="geometry">
                        <mxRectangle width="211" height="30" as="alternateBounds"/>
                    </mxGeometry>
                </mxCell>
                <mxCell id="Mvcls2_Yj3mMzUqsqHgS-39" style="shape=tableRow;horizontal=0;startSize=0;swimlaneHead=0;swimlaneBody=0;top=0;left=0;bottom=0;right=0;collapsible=0;dropTarget=0;fillColor=none;points=[[0,0.5],[1,0.5]];portConstraint=eastwest;shadow=0;labelBackgroundColor=none;labelBorderColor=none;fillStyle=zigzag-line;strokeColor=#0a0000;strokeWidth=15;html=0;" vertex="1" parent="Mvcls2_Yj3mMzUqsqHgS-11">
                    <mxGeometry y="300" width="277" height="30" as="geometry"/>
                </mxCell>
                <mxCell id="Mvcls2_Yj3mMzUqsqHgS-40" value="-" style="shape=partialRectangle;html=1;whiteSpace=wrap;connectable=0;fillColor=none;top=0;left=0;bottom=0;right=0;overflow=hidden;shadow=0;labelBackgroundColor=none;labelBorderColor=none;fillStyle=zigzag-line;strokeColor=#0a0000;strokeWidth=15;" vertex="1" parent="Mvcls2_Yj3mMzUqsqHgS-39">
                    <mxGeometry width="66" height="30" as="geometry">
                        <mxRectangle width="66" height="30" as="alternateBounds"/>
                    </mxGeometry>
                </mxCell>
                <mxCell id="Mvcls2_Yj3mMzUqsqHgS-41" value="price : Double" style="shape=partialRectangle;html=1;whiteSpace=wrap;connectable=0;fillColor=none;top=0;left=0;bottom=0;right=0;align=left;spacingLeft=6;overflow=hidden;shadow=0;labelBackgroundColor=none;labelBorderColor=none;fillStyle=zigzag-line;strokeColor=#0a0000;strokeWidth=15;" vertex="1" parent="Mvcls2_Yj3mMzUqsqHgS-39">
                    <mxGeometry x="66" width="211" height="30" as="geometry">
                        <mxRectangle width="211" height="30" as="alternateBounds"/>
                    </mxGeometry>
                </mxCell>
                <mxCell id="Mvcls2_Yj3mMzUqsqHgS-42" style="shape=tableRow;horizontal=0;startSize=0;swimlaneHead=0;swimlaneBody=0;top=0;left=0;bottom=0;right=0;collapsible=0;dropTarget=0;fillColor=none;points=[[0,0.5],[1,0.5]];portConstraint=eastwest;shadow=0;labelBackgroundColor=none;labelBorderColor=none;fillStyle=zigzag-line;strokeColor=#0a0000;strokeWidth=15;html=0;" vertex="1" parent="Mvcls2_Yj3mMzUqsqHgS-11">
                    <mxGeometry y="330" width="277" height="30" as="geometry"/>
                </mxCell>
                <mxCell id="Mvcls2_Yj3mMzUqsqHgS-43" value="-" style="shape=partialRectangle;html=1;whiteSpace=wrap;connectable=0;fillColor=none;top=0;left=0;bottom=0;right=0;overflow=hidden;shadow=0;labelBackgroundColor=none;labelBorderColor=none;fillStyle=zigzag-line;strokeColor=#0a0000;strokeWidth=15;" vertex="1" parent="Mvcls2_Yj3mMzUqsqHgS-42">
                    <mxGeometry width="66" height="30" as="geometry">
                        <mxRectangle width="66" height="30" as="alternateBounds"/>
                    </mxGeometry>
                </mxCell>
                <mxCell id="Mvcls2_Yj3mMzUqsqHgS-44" value="countInStock : Int32" style="shape=partialRectangle;html=1;whiteSpace=wrap;connectable=0;fillColor=none;top=0;left=0;bottom=0;right=0;align=left;spacingLeft=6;overflow=hidden;shadow=0;labelBackgroundColor=none;labelBorderColor=none;fillStyle=zigzag-line;strokeColor=#0a0000;strokeWidth=15;" vertex="1" parent="Mvcls2_Yj3mMzUqsqHgS-42">
                    <mxGeometry x="66" width="211" height="30" as="geometry">
                        <mxRectangle width="211" height="30" as="alternateBounds"/>
                    </mxGeometry>
                </mxCell>
                <mxCell id="Mvcls2_Yj3mMzUqsqHgS-45" style="shape=tableRow;horizontal=0;startSize=0;swimlaneHead=0;swimlaneBody=0;top=0;left=0;bottom=0;right=0;collapsible=0;dropTarget=0;fillColor=none;points=[[0,0.5],[1,0.5]];portConstraint=eastwest;shadow=0;labelBackgroundColor=none;labelBorderColor=none;fillStyle=zigzag-line;strokeColor=#0a0000;strokeWidth=15;html=0;" vertex="1" parent="Mvcls2_Yj3mMzUqsqHgS-11">
                    <mxGeometry y="360" width="277" height="28" as="geometry"/>
                </mxCell>
                <mxCell id="Mvcls2_Yj3mMzUqsqHgS-46" value="-" style="shape=partialRectangle;html=1;whiteSpace=wrap;connectable=0;fillColor=none;top=0;left=0;bottom=0;right=0;overflow=hidden;shadow=0;labelBackgroundColor=none;labelBorderColor=none;fillStyle=zigzag-line;strokeColor=#0a0000;strokeWidth=15;" vertex="1" parent="Mvcls2_Yj3mMzUqsqHgS-45">
                    <mxGeometry width="66" height="28" as="geometry">
                        <mxRectangle width="66" height="28" as="alternateBounds"/>
                    </mxGeometry>
                </mxCell>
                <mxCell id="Mvcls2_Yj3mMzUqsqHgS-47" value="reviews : Array [{&amp;nbsp;user ,name ,rating ,comment ,_id} ]" style="shape=partialRectangle;html=1;whiteSpace=wrap;connectable=0;fillColor=none;top=0;left=0;bottom=0;right=0;align=left;spacingLeft=6;overflow=hidden;shadow=0;labelBackgroundColor=none;labelBorderColor=none;fillStyle=zigzag-line;strokeColor=#0a0000;strokeWidth=15;" vertex="1" parent="Mvcls2_Yj3mMzUqsqHgS-45">
                    <mxGeometry x="66" width="211" height="28" as="geometry">
                        <mxRectangle width="211" height="28" as="alternateBounds"/>
                    </mxGeometry>
                </mxCell>
                <mxCell id="Mvcls2_Yj3mMzUqsqHgS-48" style="shape=tableRow;horizontal=0;startSize=0;swimlaneHead=0;swimlaneBody=0;top=0;left=0;bottom=0;right=0;collapsible=0;dropTarget=0;fillColor=none;points=[[0,0.5],[1,0.5]];portConstraint=eastwest;shadow=0;labelBackgroundColor=none;labelBorderColor=none;fillStyle=zigzag-line;strokeColor=#0a0000;strokeWidth=15;html=0;" vertex="1" parent="Mvcls2_Yj3mMzUqsqHgS-11">
                    <mxGeometry y="388" width="277" height="30" as="geometry"/>
                </mxCell>
                <mxCell id="Mvcls2_Yj3mMzUqsqHgS-49" value="+" style="shape=partialRectangle;html=1;whiteSpace=wrap;connectable=0;fillColor=none;top=0;left=0;bottom=0;right=0;overflow=hidden;shadow=0;labelBackgroundColor=none;labelBorderColor=none;fillStyle=zigzag-line;strokeColor=#0a0000;strokeWidth=15;" vertex="1" parent="Mvcls2_Yj3mMzUqsqHgS-48">
                    <mxGeometry width="66" height="30" as="geometry">
                        <mxRectangle width="66" height="30" as="alternateBounds"/>
                    </mxGeometry>
                </mxCell>
                <mxCell id="Mvcls2_Yj3mMzUqsqHgS-50" value="getProducts( )" style="shape=partialRectangle;html=1;whiteSpace=wrap;connectable=0;fillColor=none;top=0;left=0;bottom=0;right=0;align=left;spacingLeft=6;overflow=hidden;shadow=0;labelBackgroundColor=none;labelBorderColor=none;fillStyle=zigzag-line;strokeColor=#0a0000;strokeWidth=15;" vertex="1" parent="Mvcls2_Yj3mMzUqsqHgS-48">
                    <mxGeometry x="66" width="211" height="30" as="geometry">
                        <mxRectangle width="211" height="30" as="alternateBounds"/>
                    </mxGeometry>
                </mxCell>
                <mxCell id="Mvcls2_Yj3mMzUqsqHgS-51" style="shape=tableRow;horizontal=0;startSize=0;swimlaneHead=0;swimlaneBody=0;top=0;left=0;bottom=0;right=0;collapsible=0;dropTarget=0;fillColor=none;points=[[0,0.5],[1,0.5]];portConstraint=eastwest;shadow=0;labelBackgroundColor=none;labelBorderColor=none;fillStyle=zigzag-line;strokeColor=#0a0000;strokeWidth=15;html=0;" vertex="1" parent="Mvcls2_Yj3mMzUqsqHgS-11">
                    <mxGeometry y="418" width="277" height="30" as="geometry"/>
                </mxCell>
                <mxCell id="Mvcls2_Yj3mMzUqsqHgS-52" value="+" style="shape=partialRectangle;html=1;whiteSpace=wrap;connectable=0;fillColor=none;top=0;left=0;bottom=0;right=0;overflow=hidden;shadow=0;labelBackgroundColor=none;labelBorderColor=none;fillStyle=zigzag-line;strokeColor=#0a0000;strokeWidth=15;" vertex="1" parent="Mvcls2_Yj3mMzUqsqHgS-51">
                    <mxGeometry width="66" height="30" as="geometry">
                        <mxRectangle width="66" height="30" as="alternateBounds"/>
                    </mxGeometry>
                </mxCell>
                <mxCell id="Mvcls2_Yj3mMzUqsqHgS-53" value="createProduct( )" style="shape=partialRectangle;html=1;whiteSpace=wrap;connectable=0;fillColor=none;top=0;left=0;bottom=0;right=0;align=left;spacingLeft=6;overflow=hidden;shadow=0;labelBackgroundColor=none;labelBorderColor=none;fillStyle=zigzag-line;strokeColor=#0a0000;strokeWidth=15;" vertex="1" parent="Mvcls2_Yj3mMzUqsqHgS-51">
                    <mxGeometry x="66" width="211" height="30" as="geometry">
                        <mxRectangle width="211" height="30" as="alternateBounds"/>
                    </mxGeometry>
                </mxCell>
                <mxCell id="Mvcls2_Yj3mMzUqsqHgS-54" style="shape=tableRow;horizontal=0;startSize=0;swimlaneHead=0;swimlaneBody=0;top=0;left=0;bottom=0;right=0;collapsible=0;dropTarget=0;fillColor=none;points=[[0,0.5],[1,0.5]];portConstraint=eastwest;shadow=0;labelBackgroundColor=none;labelBorderColor=none;fillStyle=zigzag-line;strokeColor=#0a0000;strokeWidth=15;html=0;" vertex="1" parent="Mvcls2_Yj3mMzUqsqHgS-11">
                    <mxGeometry y="448" width="277" height="30" as="geometry"/>
                </mxCell>
                <mxCell id="Mvcls2_Yj3mMzUqsqHgS-55" value="+" style="shape=partialRectangle;html=1;whiteSpace=wrap;connectable=0;fillColor=none;top=0;left=0;bottom=0;right=0;overflow=hidden;shadow=0;labelBackgroundColor=none;labelBorderColor=none;fillStyle=zigzag-line;strokeColor=#0a0000;strokeWidth=15;" vertex="1" parent="Mvcls2_Yj3mMzUqsqHgS-54">
                    <mxGeometry width="66" height="30" as="geometry">
                        <mxRectangle width="66" height="30" as="alternateBounds"/>
                    </mxGeometry>
                </mxCell>
                <mxCell id="Mvcls2_Yj3mMzUqsqHgS-56" value="createProductReview( )" style="shape=partialRectangle;html=1;whiteSpace=wrap;connectable=0;fillColor=none;top=0;left=0;bottom=0;right=0;align=left;spacingLeft=6;overflow=hidden;shadow=0;labelBackgroundColor=none;labelBorderColor=none;fillStyle=zigzag-line;strokeColor=#0a0000;strokeWidth=15;" vertex="1" parent="Mvcls2_Yj3mMzUqsqHgS-54">
                    <mxGeometry x="66" width="211" height="30" as="geometry">
                        <mxRectangle width="211" height="30" as="alternateBounds"/>
                    </mxGeometry>
                </mxCell>
                <mxCell id="Mvcls2_Yj3mMzUqsqHgS-66" style="shape=tableRow;horizontal=0;startSize=0;swimlaneHead=0;swimlaneBody=0;top=0;left=0;bottom=0;right=0;collapsible=0;dropTarget=0;fillColor=none;points=[[0,0.5],[1,0.5]];portConstraint=eastwest;shadow=0;labelBackgroundColor=none;labelBorderColor=none;fillStyle=zigzag-line;strokeColor=#0a0000;strokeWidth=15;html=0;" vertex="1" parent="Mvcls2_Yj3mMzUqsqHgS-11">
                    <mxGeometry y="478" width="277" height="30" as="geometry"/>
                </mxCell>
                <mxCell id="Mvcls2_Yj3mMzUqsqHgS-67" value="+" style="shape=partialRectangle;html=1;whiteSpace=wrap;connectable=0;fillColor=none;top=0;left=0;bottom=0;right=0;overflow=hidden;shadow=0;labelBackgroundColor=none;labelBorderColor=none;fillStyle=zigzag-line;strokeColor=#0a0000;strokeWidth=15;" vertex="1" parent="Mvcls2_Yj3mMzUqsqHgS-66">
                    <mxGeometry width="66" height="30" as="geometry">
                        <mxRectangle width="66" height="30" as="alternateBounds"/>
                    </mxGeometry>
                </mxCell>
                <mxCell id="Mvcls2_Yj3mMzUqsqHgS-68" value="getTopProducts( )" style="shape=partialRectangle;html=1;whiteSpace=wrap;connectable=0;fillColor=none;top=0;left=0;bottom=0;right=0;align=left;spacingLeft=6;overflow=hidden;shadow=0;labelBackgroundColor=none;labelBorderColor=none;fillStyle=zigzag-line;strokeColor=#0a0000;strokeWidth=15;" vertex="1" parent="Mvcls2_Yj3mMzUqsqHgS-66">
                    <mxGeometry x="66" width="211" height="30" as="geometry">
                        <mxRectangle width="211" height="30" as="alternateBounds"/>
                    </mxGeometry>
                </mxCell>
                <mxCell id="Mvcls2_Yj3mMzUqsqHgS-63" style="shape=tableRow;horizontal=0;startSize=0;swimlaneHead=0;swimlaneBody=0;top=0;left=0;bottom=0;right=0;collapsible=0;dropTarget=0;fillColor=none;points=[[0,0.5],[1,0.5]];portConstraint=eastwest;shadow=0;labelBackgroundColor=none;labelBorderColor=none;fillStyle=zigzag-line;strokeColor=#0a0000;strokeWidth=15;html=0;" vertex="1" parent="Mvcls2_Yj3mMzUqsqHgS-11">
                    <mxGeometry y="508" width="277" height="30" as="geometry"/>
                </mxCell>
                <mxCell id="Mvcls2_Yj3mMzUqsqHgS-64" value="+" style="shape=partialRectangle;html=1;whiteSpace=wrap;connectable=0;fillColor=none;top=0;left=0;bottom=0;right=0;overflow=hidden;shadow=0;labelBackgroundColor=none;labelBorderColor=none;fillStyle=zigzag-line;strokeColor=#0a0000;strokeWidth=15;" vertex="1" parent="Mvcls2_Yj3mMzUqsqHgS-63">
                    <mxGeometry width="66" height="30" as="geometry">
                        <mxRectangle width="66" height="30" as="alternateBounds"/>
                    </mxGeometry>
                </mxCell>
                <mxCell id="Mvcls2_Yj3mMzUqsqHgS-65" value="getProductById( )" style="shape=partialRectangle;html=1;whiteSpace=wrap;connectable=0;fillColor=none;top=0;left=0;bottom=0;right=0;align=left;spacingLeft=6;overflow=hidden;shadow=0;labelBackgroundColor=none;labelBorderColor=none;fillStyle=zigzag-line;strokeColor=#0a0000;strokeWidth=15;" vertex="1" parent="Mvcls2_Yj3mMzUqsqHgS-63">
                    <mxGeometry x="66" width="211" height="30" as="geometry">
                        <mxRectangle width="211" height="30" as="alternateBounds"/>
                    </mxGeometry>
                </mxCell>
                <mxCell id="Mvcls2_Yj3mMzUqsqHgS-60" style="shape=tableRow;horizontal=0;startSize=0;swimlaneHead=0;swimlaneBody=0;top=0;left=0;bottom=0;right=0;collapsible=0;dropTarget=0;fillColor=none;points=[[0,0.5],[1,0.5]];portConstraint=eastwest;shadow=0;labelBackgroundColor=none;labelBorderColor=none;fillStyle=zigzag-line;strokeColor=#0a0000;strokeWidth=15;html=0;" vertex="1" parent="Mvcls2_Yj3mMzUqsqHgS-11">
                    <mxGeometry y="538" width="277" height="30" as="geometry"/>
                </mxCell>
                <mxCell id="Mvcls2_Yj3mMzUqsqHgS-61" value="+" style="shape=partialRectangle;html=1;whiteSpace=wrap;connectable=0;fillColor=none;top=0;left=0;bottom=0;right=0;overflow=hidden;shadow=0;labelBackgroundColor=none;labelBorderColor=none;fillStyle=zigzag-line;strokeColor=#0a0000;strokeWidth=15;" vertex="1" parent="Mvcls2_Yj3mMzUqsqHgS-60">
                    <mxGeometry width="66" height="30" as="geometry">
                        <mxRectangle width="66" height="30" as="alternateBounds"/>
                    </mxGeometry>
                </mxCell>
                <mxCell id="Mvcls2_Yj3mMzUqsqHgS-62" value="updateProduct( )" style="shape=partialRectangle;html=1;whiteSpace=wrap;connectable=0;fillColor=none;top=0;left=0;bottom=0;right=0;align=left;spacingLeft=6;overflow=hidden;shadow=0;labelBackgroundColor=none;labelBorderColor=none;fillStyle=zigzag-line;strokeColor=#0a0000;strokeWidth=15;" vertex="1" parent="Mvcls2_Yj3mMzUqsqHgS-60">
                    <mxGeometry x="66" width="211" height="30" as="geometry">
                        <mxRectangle width="211" height="30" as="alternateBounds"/>
                    </mxGeometry>
                </mxCell>
                <mxCell id="Mvcls2_Yj3mMzUqsqHgS-57" style="shape=tableRow;horizontal=0;startSize=0;swimlaneHead=0;swimlaneBody=0;top=0;left=0;bottom=0;right=0;collapsible=0;dropTarget=0;fillColor=none;points=[[0,0.5],[1,0.5]];portConstraint=eastwest;shadow=0;labelBackgroundColor=none;labelBorderColor=none;fillStyle=zigzag-line;strokeColor=#0a0000;strokeWidth=15;html=0;" vertex="1" parent="Mvcls2_Yj3mMzUqsqHgS-11">
                    <mxGeometry y="568" width="277" height="30" as="geometry"/>
                </mxCell>
                <mxCell id="Mvcls2_Yj3mMzUqsqHgS-58" value="+" style="shape=partialRectangle;html=1;whiteSpace=wrap;connectable=0;fillColor=none;top=0;left=0;bottom=0;right=0;overflow=hidden;shadow=0;labelBackgroundColor=none;labelBorderColor=none;fillStyle=zigzag-line;strokeColor=#0a0000;strokeWidth=15;" vertex="1" parent="Mvcls2_Yj3mMzUqsqHgS-57">
                    <mxGeometry width="66" height="30" as="geometry">
                        <mxRectangle width="66" height="30" as="alternateBounds"/>
                    </mxGeometry>
                </mxCell>
                <mxCell id="Mvcls2_Yj3mMzUqsqHgS-59" value="deleteProduct( )" style="shape=partialRectangle;html=1;whiteSpace=wrap;connectable=0;fillColor=none;top=0;left=0;bottom=0;right=0;align=left;spacingLeft=6;overflow=hidden;shadow=0;labelBackgroundColor=none;labelBorderColor=none;fillStyle=zigzag-line;strokeColor=#0a0000;strokeWidth=15;" vertex="1" parent="Mvcls2_Yj3mMzUqsqHgS-57">
                    <mxGeometry x="66" width="211" height="30" as="geometry">
                        <mxRectangle width="211" height="30" as="alternateBounds"/>
                    </mxGeometry>
                </mxCell>
                <mxCell id="Mvcls2_Yj3mMzUqsqHgS-69" value="" style="line;strokeWidth=2;html=1;shadow=0;labelBackgroundColor=none;labelBorderColor=none;fillStyle=zigzag-line;strokeColor=#FFFFFF;fillColor=default;gradientColor=none;" vertex="1" parent="1MbCygZeeLemg4lFdXC7-61">
                    <mxGeometry y="388" width="280" height="10" as="geometry"/>
                </mxCell>
                <mxCell id="Xs6QRTIxuOCWSncOhkzT-1" value="" style="edgeStyle=entityRelationEdgeStyle;fontSize=12;html=1;endArrow=ERzeroToMany;startArrow=ERmandOne;fontFamily=Helvetica;fontColor=rgb(240, 240, 240);" edge="1" parent="1" source="8t855Lhe_C1THvjJZFFG-2" target="1MbCygZeeLemg4lFdXC7-66">
                    <mxGeometry width="100" height="100" relative="1" as="geometry">
                        <mxPoint x="-3.5200000000000955" y="35.87999999999988" as="sourcePoint"/>
                        <mxPoint x="269.0799999999999" y="34.23999999999978" as="targetPoint"/>
                    </mxGeometry>
                </mxCell>
                <mxCell id="0SlBTLgXiWzrnEI-SAA--1" value="" style="edgeStyle=entityRelationEdgeStyle;fontSize=12;html=1;endArrow=ERzeroToOne;startArrow=ERmandOne;fontFamily=Helvetica;fontColor=rgb(240, 240, 240);" edge="1" parent="1" source="8t855Lhe_C1THvjJZFFG-2" target="Mvcls2_Yj3mMzUqsqHgS-45">
                    <mxGeometry width="100" height="100" relative="1" as="geometry">
                        <mxPoint x="-61" y="256" as="sourcePoint"/>
                        <mxPoint x="39" y="156" as="targetPoint"/>
                    </mxGeometry>
                </mxCell>
                <mxCell id="AB4lqBIT20XMZcViEr87-2" value="" style="edgeStyle=entityRelationEdgeStyle;fontSize=12;html=1;endArrow=ERoneToMany;startArrow=ERzeroToOne;fontFamily=Helvetica;fontColor=rgb(240, 240, 240);" edge="1" parent="1" source="Mvcls2_Yj3mMzUqsqHgS-12" target="1MbCygZeeLemg4lFdXC7-69">
                    <mxGeometry width="100" height="100" relative="1" as="geometry">
                        <mxPoint x="488" y="138" as="sourcePoint"/>
                        <mxPoint x="588" y="38" as="targetPoint"/>
                    </mxGeometry>
                </mxCell>
                <mxCell id="1MbCygZeeLemg4lFdXC7-62" value="Order" style="shape=table;startSize=30;container=1;collapsible=0;childLayout=tableLayout;fixedRows=1;rowLines=0;fontStyle=1;shadow=0;labelBackgroundColor=none;labelBorderColor=none;fillStyle=zigzag-line;strokeColor=#ffffff;strokeWidth=4;fillColor=default;gradientColor=none;html=1;fontColor=default;whiteSpace=wrap;spacingTop=0;swimlaneFillColor=none;" vertex="1" parent="1">
                    <mxGeometry x="-605" y="4" width="268" height="548.29" as="geometry"/>
                </mxCell>
                <mxCell id="1MbCygZeeLemg4lFdXC7-63" value="" style="shape=tableRow;horizontal=0;startSize=0;swimlaneHead=0;swimlaneBody=0;top=0;left=0;bottom=0;right=0;collapsible=0;dropTarget=0;fillColor=none;points=[[0,0.5],[1,0.5]];portConstraint=eastwest;shadow=0;labelBackgroundColor=none;labelBorderColor=none;fillStyle=zigzag-line;strokeColor=#0a0000;strokeWidth=15;html=0;" vertex="1" parent="1MbCygZeeLemg4lFdXC7-62">
                    <mxGeometry y="30" width="268" height="30" as="geometry"/>
                </mxCell>
                <mxCell id="1MbCygZeeLemg4lFdXC7-64" value="PK" style="shape=partialRectangle;html=1;whiteSpace=wrap;connectable=0;fillColor=none;top=0;left=0;bottom=0;right=0;overflow=hidden;pointerEvents=1;shadow=0;labelBackgroundColor=none;labelBorderColor=none;fillStyle=zigzag-line;strokeColor=#0a0000;strokeWidth=15;" vertex="1" parent="1MbCygZeeLemg4lFdXC7-63">
                    <mxGeometry width="60" height="30" as="geometry">
                        <mxRectangle width="60" height="30" as="alternateBounds"/>
                    </mxGeometry>
                </mxCell>
                <mxCell id="1MbCygZeeLemg4lFdXC7-65" value="_id : ObjectId" style="shape=partialRectangle;html=1;whiteSpace=wrap;connectable=0;fillColor=none;top=0;left=0;bottom=0;right=0;align=left;spacingLeft=6;overflow=hidden;shadow=0;labelBackgroundColor=none;labelBorderColor=none;fillStyle=zigzag-line;strokeColor=#0a0000;strokeWidth=15;" vertex="1" parent="1MbCygZeeLemg4lFdXC7-63">
                    <mxGeometry x="60" width="208" height="30" as="geometry">
                        <mxRectangle width="208" height="30" as="alternateBounds"/>
                    </mxGeometry>
                </mxCell>
                <mxCell id="1MbCygZeeLemg4lFdXC7-66" value="" style="shape=tableRow;horizontal=0;startSize=0;swimlaneHead=0;swimlaneBody=0;top=0;left=0;bottom=0;right=0;collapsible=0;dropTarget=0;fillColor=none;points=[[0,0.5],[1,0.5]];portConstraint=eastwest;shadow=0;labelBackgroundColor=none;labelBorderColor=none;fillStyle=zigzag-line;strokeColor=#0a0000;strokeWidth=15;html=0;" vertex="1" parent="1MbCygZeeLemg4lFdXC7-62">
                    <mxGeometry y="60" width="268" height="30" as="geometry"/>
                </mxCell>
                <mxCell id="1MbCygZeeLemg4lFdXC7-67" value="FK" style="shape=partialRectangle;html=1;whiteSpace=wrap;connectable=0;fillColor=none;top=0;left=0;bottom=0;right=0;overflow=hidden;shadow=0;labelBackgroundColor=none;labelBorderColor=none;fillStyle=zigzag-line;strokeColor=#0a0000;strokeWidth=15;" vertex="1" parent="1MbCygZeeLemg4lFdXC7-66">
                    <mxGeometry width="60" height="30" as="geometry">
                        <mxRectangle width="60" height="30" as="alternateBounds"/>
                    </mxGeometry>
                </mxCell>
                <mxCell id="1MbCygZeeLemg4lFdXC7-68" value="user : ObjectId" style="shape=partialRectangle;html=1;whiteSpace=wrap;connectable=0;fillColor=none;top=0;left=0;bottom=0;right=0;align=left;spacingLeft=6;overflow=hidden;shadow=0;labelBackgroundColor=none;labelBorderColor=none;fillStyle=zigzag-line;strokeColor=#0a0000;strokeWidth=15;" vertex="1" parent="1MbCygZeeLemg4lFdXC7-66">
                    <mxGeometry x="60" width="208" height="30" as="geometry">
                        <mxRectangle width="208" height="30" as="alternateBounds"/>
                    </mxGeometry>
                </mxCell>
                <mxCell id="1MbCygZeeLemg4lFdXC7-69" value="" style="shape=tableRow;horizontal=0;startSize=0;swimlaneHead=0;swimlaneBody=0;top=0;left=0;bottom=0;right=0;collapsible=0;dropTarget=0;fillColor=none;points=[[0,0.5],[1,0.5]];portConstraint=eastwest;shadow=0;labelBackgroundColor=none;labelBorderColor=none;fillStyle=zigzag-line;strokeColor=#0a0000;strokeWidth=15;html=0;" vertex="1" parent="1MbCygZeeLemg4lFdXC7-62">
                    <mxGeometry y="90" width="268" height="30" as="geometry"/>
                </mxCell>
                <mxCell id="1MbCygZeeLemg4lFdXC7-70" value="-" style="shape=partialRectangle;html=1;whiteSpace=wrap;connectable=0;fillColor=none;top=0;left=0;bottom=0;right=0;overflow=hidden;shadow=0;labelBackgroundColor=none;labelBorderColor=none;fillStyle=zigzag-line;strokeColor=#0a0000;strokeWidth=15;" vertex="1" parent="1MbCygZeeLemg4lFdXC7-69">
                    <mxGeometry width="60" height="30" as="geometry">
                        <mxRectangle width="60" height="30" as="alternateBounds"/>
                    </mxGeometry>
                </mxCell>
                <mxCell id="1MbCygZeeLemg4lFdXC7-71" value="orderItems : Array [ { name,qty,image,price,product,_id} ]" style="shape=partialRectangle;html=1;whiteSpace=wrap;connectable=0;fillColor=none;top=0;left=0;bottom=0;right=0;align=left;spacingLeft=6;overflow=hidden;shadow=0;labelBackgroundColor=none;labelBorderColor=none;fillStyle=zigzag-line;strokeColor=#0a0000;strokeWidth=15;" vertex="1" parent="1MbCygZeeLemg4lFdXC7-69">
                    <mxGeometry x="60" width="208" height="30" as="geometry">
                        <mxRectangle width="208" height="30" as="alternateBounds"/>
                    </mxGeometry>
                </mxCell>
                <mxCell id="1MbCygZeeLemg4lFdXC7-72" style="shape=tableRow;horizontal=0;startSize=0;swimlaneHead=0;swimlaneBody=0;top=0;left=0;bottom=0;right=0;collapsible=0;dropTarget=0;fillColor=none;points=[[0,0.5],[1,0.5]];portConstraint=eastwest;shadow=0;labelBackgroundColor=none;labelBorderColor=none;fillStyle=zigzag-line;strokeColor=#0a0000;strokeWidth=15;html=0;" vertex="1" parent="1MbCygZeeLemg4lFdXC7-62">
                    <mxGeometry y="120" width="268" height="30" as="geometry"/>
                </mxCell>
                <mxCell id="1MbCygZeeLemg4lFdXC7-73" value="-" style="shape=partialRectangle;html=1;whiteSpace=wrap;connectable=0;fillColor=none;top=0;left=0;bottom=0;right=0;overflow=hidden;shadow=0;labelBackgroundColor=none;labelBorderColor=none;fillStyle=zigzag-line;strokeColor=#0a0000;strokeWidth=15;" vertex="1" parent="1MbCygZeeLemg4lFdXC7-72">
                    <mxGeometry width="60" height="30" as="geometry">
                        <mxRectangle width="60" height="30" as="alternateBounds"/>
                    </mxGeometry>
                </mxCell>
                <mxCell id="1MbCygZeeLemg4lFdXC7-74" value="shippingAddress :Object {address,citypostalCode,country}" style="shape=partialRectangle;html=1;whiteSpace=wrap;connectable=0;fillColor=none;top=0;left=0;bottom=0;right=0;align=left;spacingLeft=6;overflow=hidden;shadow=0;labelBackgroundColor=none;labelBorderColor=none;fillStyle=zigzag-line;strokeColor=#0a0000;strokeWidth=15;" vertex="1" parent="1MbCygZeeLemg4lFdXC7-72">
                    <mxGeometry x="60" width="208" height="30" as="geometry">
                        <mxRectangle width="208" height="30" as="alternateBounds"/>
                    </mxGeometry>
                </mxCell>
                <mxCell id="1MbCygZeeLemg4lFdXC7-75" style="shape=tableRow;horizontal=0;startSize=0;swimlaneHead=0;swimlaneBody=0;top=0;left=0;bottom=0;right=0;collapsible=0;dropTarget=0;fillColor=none;points=[[0,0.5],[1,0.5]];portConstraint=eastwest;shadow=0;labelBackgroundColor=none;labelBorderColor=none;fillStyle=zigzag-line;strokeColor=#0a0000;strokeWidth=15;html=0;" vertex="1" parent="1MbCygZeeLemg4lFdXC7-62">
                    <mxGeometry y="150" width="268" height="27" as="geometry"/>
                </mxCell>
                <mxCell id="1MbCygZeeLemg4lFdXC7-76" value="-" style="shape=partialRectangle;html=1;whiteSpace=wrap;connectable=0;fillColor=none;top=0;left=0;bottom=0;right=0;overflow=hidden;shadow=0;labelBackgroundColor=none;labelBorderColor=none;fillStyle=zigzag-line;strokeColor=#0a0000;strokeWidth=15;" vertex="1" parent="1MbCygZeeLemg4lFdXC7-75">
                    <mxGeometry width="60" height="27" as="geometry">
                        <mxRectangle width="60" height="27" as="alternateBounds"/>
                    </mxGeometry>
                </mxCell>
                <mxCell id="1MbCygZeeLemg4lFdXC7-77" value="paymentMethod : String" style="shape=partialRectangle;html=1;whiteSpace=wrap;connectable=0;fillColor=none;top=0;left=0;bottom=0;right=0;align=left;spacingLeft=6;overflow=hidden;shadow=0;labelBackgroundColor=none;labelBorderColor=none;fillStyle=zigzag-line;strokeColor=#0a0000;strokeWidth=15;" vertex="1" parent="1MbCygZeeLemg4lFdXC7-75">
                    <mxGeometry x="60" width="208" height="27" as="geometry">
                        <mxRectangle width="208" height="27" as="alternateBounds"/>
                    </mxGeometry>
                </mxCell>
                <mxCell id="1MbCygZeeLemg4lFdXC7-78" style="shape=tableRow;horizontal=0;startSize=0;swimlaneHead=0;swimlaneBody=0;top=0;left=0;bottom=0;right=0;collapsible=0;dropTarget=0;fillColor=none;points=[[0,0.5],[1,0.5]];portConstraint=eastwest;shadow=0;labelBackgroundColor=none;labelBorderColor=none;fillStyle=zigzag-line;strokeColor=#0a0000;strokeWidth=15;html=0;" vertex="1" parent="1MbCygZeeLemg4lFdXC7-62">
                    <mxGeometry y="177" width="268" height="30" as="geometry"/>
                </mxCell>
                <mxCell id="1MbCygZeeLemg4lFdXC7-79" value="-" style="shape=partialRectangle;html=1;whiteSpace=wrap;connectable=0;fillColor=none;top=0;left=0;bottom=0;right=0;overflow=hidden;shadow=0;labelBackgroundColor=none;labelBorderColor=none;fillStyle=zigzag-line;strokeColor=#0a0000;strokeWidth=15;" vertex="1" parent="1MbCygZeeLemg4lFdXC7-78">
                    <mxGeometry width="60" height="30" as="geometry">
                        <mxRectangle width="60" height="30" as="alternateBounds"/>
                    </mxGeometry>
                </mxCell>
                <mxCell id="1MbCygZeeLemg4lFdXC7-80" value="itemsPrice : Double" style="shape=partialRectangle;html=1;whiteSpace=wrap;connectable=0;fillColor=none;top=0;left=0;bottom=0;right=0;align=left;spacingLeft=6;overflow=hidden;shadow=0;labelBackgroundColor=none;labelBorderColor=none;fillStyle=zigzag-line;strokeColor=#0a0000;strokeWidth=15;" vertex="1" parent="1MbCygZeeLemg4lFdXC7-78">
                    <mxGeometry x="60" width="208" height="30" as="geometry">
                        <mxRectangle width="208" height="30" as="alternateBounds"/>
                    </mxGeometry>
                </mxCell>
                <mxCell id="1MbCygZeeLemg4lFdXC7-81" style="shape=tableRow;horizontal=0;startSize=0;swimlaneHead=0;swimlaneBody=0;top=0;left=0;bottom=0;right=0;collapsible=0;dropTarget=0;fillColor=none;points=[[0,0.5],[1,0.5]];portConstraint=eastwest;shadow=0;labelBackgroundColor=none;labelBorderColor=none;fillStyle=zigzag-line;strokeColor=#0a0000;strokeWidth=15;html=0;" vertex="1" parent="1MbCygZeeLemg4lFdXC7-62">
                    <mxGeometry y="207" width="268" height="30" as="geometry"/>
                </mxCell>
                <mxCell id="1MbCygZeeLemg4lFdXC7-82" value="-" style="shape=partialRectangle;html=1;whiteSpace=wrap;connectable=0;fillColor=none;top=0;left=0;bottom=0;right=0;overflow=hidden;shadow=0;labelBackgroundColor=none;labelBorderColor=none;fillStyle=zigzag-line;strokeColor=#0a0000;strokeWidth=15;" vertex="1" parent="1MbCygZeeLemg4lFdXC7-81">
                    <mxGeometry width="60" height="30" as="geometry">
                        <mxRectangle width="60" height="30" as="alternateBounds"/>
                    </mxGeometry>
                </mxCell>
                <mxCell id="1MbCygZeeLemg4lFdXC7-83" value="taxPrice : Int32" style="shape=partialRectangle;html=1;whiteSpace=wrap;connectable=0;fillColor=none;top=0;left=0;bottom=0;right=0;align=left;spacingLeft=6;overflow=hidden;shadow=0;labelBackgroundColor=none;labelBorderColor=none;fillStyle=zigzag-line;strokeColor=#0a0000;strokeWidth=15;" vertex="1" parent="1MbCygZeeLemg4lFdXC7-81">
                    <mxGeometry x="60" width="208" height="30" as="geometry">
                        <mxRectangle width="208" height="30" as="alternateBounds"/>
                    </mxGeometry>
                </mxCell>
                <mxCell id="1MbCygZeeLemg4lFdXC7-84" style="shape=tableRow;horizontal=0;startSize=0;swimlaneHead=0;swimlaneBody=0;top=0;left=0;bottom=0;right=0;collapsible=0;dropTarget=0;fillColor=none;points=[[0,0.5],[1,0.5]];portConstraint=eastwest;shadow=0;labelBackgroundColor=none;labelBorderColor=none;fillStyle=zigzag-line;strokeColor=#0a0000;strokeWidth=15;html=0;" vertex="1" parent="1MbCygZeeLemg4lFdXC7-62">
                    <mxGeometry y="237" width="268" height="30" as="geometry"/>
                </mxCell>
                <mxCell id="1MbCygZeeLemg4lFdXC7-85" value="-" style="shape=partialRectangle;html=1;whiteSpace=wrap;connectable=0;fillColor=none;top=0;left=0;bottom=0;right=0;overflow=hidden;shadow=0;labelBackgroundColor=none;labelBorderColor=none;fillStyle=zigzag-line;strokeColor=#0a0000;strokeWidth=15;" vertex="1" parent="1MbCygZeeLemg4lFdXC7-84">
                    <mxGeometry width="60" height="30" as="geometry">
                        <mxRectangle width="60" height="30" as="alternateBounds"/>
                    </mxGeometry>
                </mxCell>
                <mxCell id="1MbCygZeeLemg4lFdXC7-86" value="shippingPrice : Int32" style="shape=partialRectangle;html=1;whiteSpace=wrap;connectable=0;fillColor=none;top=0;left=0;bottom=0;right=0;align=left;spacingLeft=6;overflow=hidden;shadow=0;labelBackgroundColor=none;labelBorderColor=none;fillStyle=zigzag-line;strokeColor=#0a0000;strokeWidth=15;" vertex="1" parent="1MbCygZeeLemg4lFdXC7-84">
                    <mxGeometry x="60" width="208" height="30" as="geometry">
                        <mxRectangle width="208" height="30" as="alternateBounds"/>
                    </mxGeometry>
                </mxCell>
                <mxCell id="1MbCygZeeLemg4lFdXC7-87" style="shape=tableRow;horizontal=0;startSize=0;swimlaneHead=0;swimlaneBody=0;top=0;left=0;bottom=0;right=0;collapsible=0;dropTarget=0;fillColor=none;points=[[0,0.5],[1,0.5]];portConstraint=eastwest;shadow=0;labelBackgroundColor=none;labelBorderColor=none;fillStyle=zigzag-line;strokeColor=#0a0000;strokeWidth=15;html=0;" vertex="1" parent="1MbCygZeeLemg4lFdXC7-62">
                    <mxGeometry y="267" width="268" height="30" as="geometry"/>
                </mxCell>
                <mxCell id="1MbCygZeeLemg4lFdXC7-88" value="-" style="shape=partialRectangle;html=1;whiteSpace=wrap;connectable=0;fillColor=none;top=0;left=0;bottom=0;right=0;overflow=hidden;shadow=0;labelBackgroundColor=none;labelBorderColor=none;fillStyle=zigzag-line;strokeColor=#0a0000;strokeWidth=15;" vertex="1" parent="1MbCygZeeLemg4lFdXC7-87">
                    <mxGeometry width="60" height="30" as="geometry">
                        <mxRectangle width="60" height="30" as="alternateBounds"/>
                    </mxGeometry>
                </mxCell>
                <mxCell id="1MbCygZeeLemg4lFdXC7-89" value="totalPrice : Double" style="shape=partialRectangle;html=1;whiteSpace=wrap;connectable=0;fillColor=none;top=0;left=0;bottom=0;right=0;align=left;spacingLeft=6;overflow=hidden;shadow=0;labelBackgroundColor=none;labelBorderColor=none;fillStyle=zigzag-line;strokeColor=#0a0000;strokeWidth=15;" vertex="1" parent="1MbCygZeeLemg4lFdXC7-87">
                    <mxGeometry x="60" width="208" height="30" as="geometry">
                        <mxRectangle width="208" height="30" as="alternateBounds"/>
                    </mxGeometry>
                </mxCell>
                <mxCell id="1MbCygZeeLemg4lFdXC7-90" style="shape=tableRow;horizontal=0;startSize=0;swimlaneHead=0;swimlaneBody=0;top=0;left=0;bottom=0;right=0;collapsible=0;dropTarget=0;fillColor=none;points=[[0,0.5],[1,0.5]];portConstraint=eastwest;shadow=0;labelBackgroundColor=none;labelBorderColor=none;fillStyle=zigzag-line;strokeColor=#0a0000;strokeWidth=15;html=0;" vertex="1" parent="1MbCygZeeLemg4lFdXC7-62">
                    <mxGeometry y="297" width="268" height="30" as="geometry"/>
                </mxCell>
                <mxCell id="1MbCygZeeLemg4lFdXC7-91" value="-" style="shape=partialRectangle;html=1;whiteSpace=wrap;connectable=0;fillColor=none;top=0;left=0;bottom=0;right=0;overflow=hidden;shadow=0;labelBackgroundColor=none;labelBorderColor=none;fillStyle=zigzag-line;strokeColor=#0a0000;strokeWidth=15;" vertex="1" parent="1MbCygZeeLemg4lFdXC7-90">
                    <mxGeometry width="60" height="30" as="geometry">
                        <mxRectangle width="60" height="30" as="alternateBounds"/>
                    </mxGeometry>
                </mxCell>
                <mxCell id="1MbCygZeeLemg4lFdXC7-92" value="isPaid : Boolean" style="shape=partialRectangle;html=1;whiteSpace=wrap;connectable=0;fillColor=none;top=0;left=0;bottom=0;right=0;align=left;spacingLeft=6;overflow=hidden;shadow=0;labelBackgroundColor=none;labelBorderColor=none;fillStyle=zigzag-line;strokeColor=#0a0000;strokeWidth=15;" vertex="1" parent="1MbCygZeeLemg4lFdXC7-90">
                    <mxGeometry x="60" width="208" height="30" as="geometry">
                        <mxRectangle width="208" height="30" as="alternateBounds"/>
                    </mxGeometry>
                </mxCell>
                <mxCell id="1MbCygZeeLemg4lFdXC7-93" style="shape=tableRow;horizontal=0;startSize=0;swimlaneHead=0;swimlaneBody=0;top=0;left=0;bottom=0;right=0;collapsible=0;dropTarget=0;fillColor=none;points=[[0,0.5],[1,0.5]];portConstraint=eastwest;shadow=0;labelBackgroundColor=none;labelBorderColor=none;fillStyle=zigzag-line;strokeColor=#0a0000;strokeWidth=15;html=0;" vertex="1" parent="1MbCygZeeLemg4lFdXC7-62">
                    <mxGeometry y="327" width="268" height="30" as="geometry"/>
                </mxCell>
                <mxCell id="1MbCygZeeLemg4lFdXC7-94" value="-" style="shape=partialRectangle;html=1;whiteSpace=wrap;connectable=0;fillColor=none;top=0;left=0;bottom=0;right=0;overflow=hidden;shadow=0;labelBackgroundColor=none;labelBorderColor=none;fillStyle=zigzag-line;strokeColor=#0a0000;strokeWidth=15;" vertex="1" parent="1MbCygZeeLemg4lFdXC7-93">
                    <mxGeometry width="60" height="30" as="geometry">
                        <mxRectangle width="60" height="30" as="alternateBounds"/>
                    </mxGeometry>
                </mxCell>
                <mxCell id="1MbCygZeeLemg4lFdXC7-95" value="isDelivered : Boolean" style="shape=partialRectangle;html=1;whiteSpace=wrap;connectable=0;fillColor=none;top=0;left=0;bottom=0;right=0;align=left;spacingLeft=6;overflow=hidden;shadow=0;labelBackgroundColor=none;labelBorderColor=none;fillStyle=zigzag-line;strokeColor=#0a0000;strokeWidth=15;" vertex="1" parent="1MbCygZeeLemg4lFdXC7-93">
                    <mxGeometry x="60" width="208" height="30" as="geometry">
                        <mxRectangle width="208" height="30" as="alternateBounds"/>
                    </mxGeometry>
                </mxCell>
                <mxCell id="1MbCygZeeLemg4lFdXC7-96" style="shape=tableRow;horizontal=0;startSize=0;swimlaneHead=0;swimlaneBody=0;top=0;left=0;bottom=0;right=0;collapsible=0;dropTarget=0;fillColor=none;points=[[0,0.5],[1,0.5]];portConstraint=eastwest;shadow=0;labelBackgroundColor=none;labelBorderColor=none;fillStyle=zigzag-line;strokeColor=#0a0000;strokeWidth=15;html=0;" vertex="1" parent="1MbCygZeeLemg4lFdXC7-62">
                    <mxGeometry y="357" width="268" height="30" as="geometry"/>
                </mxCell>
                <mxCell id="1MbCygZeeLemg4lFdXC7-97" value="+" style="shape=partialRectangle;html=1;whiteSpace=wrap;connectable=0;fillColor=none;top=0;left=0;bottom=0;right=0;overflow=hidden;shadow=0;labelBackgroundColor=none;labelBorderColor=none;fillStyle=zigzag-line;strokeColor=#0a0000;strokeWidth=15;" vertex="1" parent="1MbCygZeeLemg4lFdXC7-96">
                    <mxGeometry width="60" height="30" as="geometry">
                        <mxRectangle width="60" height="30" as="alternateBounds"/>
                    </mxGeometry>
                </mxCell>
                <mxCell id="1MbCygZeeLemg4lFdXC7-98" value="addOrderItems( )" style="shape=partialRectangle;html=1;whiteSpace=wrap;connectable=0;fillColor=none;top=0;left=0;bottom=0;right=0;align=left;spacingLeft=6;overflow=hidden;shadow=0;labelBackgroundColor=none;labelBorderColor=none;fillStyle=zigzag-line;strokeColor=#0a0000;strokeWidth=15;" vertex="1" parent="1MbCygZeeLemg4lFdXC7-96">
                    <mxGeometry x="60" width="208" height="30" as="geometry">
                        <mxRectangle width="208" height="30" as="alternateBounds"/>
                    </mxGeometry>
                </mxCell>
                <mxCell id="1MbCygZeeLemg4lFdXC7-99" style="shape=tableRow;horizontal=0;startSize=0;swimlaneHead=0;swimlaneBody=0;top=0;left=0;bottom=0;right=0;collapsible=0;dropTarget=0;fillColor=none;points=[[0,0.5],[1,0.5]];portConstraint=eastwest;shadow=0;labelBackgroundColor=none;labelBorderColor=none;fillStyle=zigzag-line;strokeColor=#0a0000;strokeWidth=15;html=0;" vertex="1" parent="1MbCygZeeLemg4lFdXC7-62">
                    <mxGeometry y="387" width="268" height="30" as="geometry"/>
                </mxCell>
                <mxCell id="1MbCygZeeLemg4lFdXC7-100" value="+" style="shape=partialRectangle;html=1;whiteSpace=wrap;connectable=0;fillColor=none;top=0;left=0;bottom=0;right=0;overflow=hidden;shadow=0;labelBackgroundColor=none;labelBorderColor=none;fillStyle=zigzag-line;strokeColor=#0a0000;strokeWidth=15;" vertex="1" parent="1MbCygZeeLemg4lFdXC7-99">
                    <mxGeometry width="60" height="30" as="geometry">
                        <mxRectangle width="60" height="30" as="alternateBounds"/>
                    </mxGeometry>
                </mxCell>
                <mxCell id="1MbCygZeeLemg4lFdXC7-101" value="getOrders( )" style="shape=partialRectangle;html=1;whiteSpace=wrap;connectable=0;fillColor=none;top=0;left=0;bottom=0;right=0;align=left;spacingLeft=6;overflow=hidden;shadow=0;labelBackgroundColor=none;labelBorderColor=none;fillStyle=zigzag-line;strokeColor=#0a0000;strokeWidth=15;" vertex="1" parent="1MbCygZeeLemg4lFdXC7-99">
                    <mxGeometry x="60" width="208" height="30" as="geometry">
                        <mxRectangle width="208" height="30" as="alternateBounds"/>
                    </mxGeometry>
                </mxCell>
                <mxCell id="1MbCygZeeLemg4lFdXC7-102" style="shape=tableRow;horizontal=0;startSize=0;swimlaneHead=0;swimlaneBody=0;top=0;left=0;bottom=0;right=0;collapsible=0;dropTarget=0;fillColor=none;points=[[0,0.5],[1,0.5]];portConstraint=eastwest;shadow=0;labelBackgroundColor=none;labelBorderColor=none;fillStyle=zigzag-line;strokeColor=#0a0000;strokeWidth=15;html=0;" vertex="1" parent="1MbCygZeeLemg4lFdXC7-62">
                    <mxGeometry y="417" width="268" height="30" as="geometry"/>
                </mxCell>
                <mxCell id="1MbCygZeeLemg4lFdXC7-103" value="+" style="shape=partialRectangle;html=1;whiteSpace=wrap;connectable=0;fillColor=none;top=0;left=0;bottom=0;right=0;overflow=hidden;shadow=0;labelBackgroundColor=none;labelBorderColor=none;fillStyle=zigzag-line;strokeColor=#0a0000;strokeWidth=15;" vertex="1" parent="1MbCygZeeLemg4lFdXC7-102">
                    <mxGeometry width="60" height="30" as="geometry">
                        <mxRectangle width="60" height="30" as="alternateBounds"/>
                    </mxGeometry>
                </mxCell>
                <mxCell id="1MbCygZeeLemg4lFdXC7-104" value="getMyOrders( )" style="shape=partialRectangle;html=1;whiteSpace=wrap;connectable=0;fillColor=none;top=0;left=0;bottom=0;right=0;align=left;spacingLeft=6;overflow=hidden;shadow=0;labelBackgroundColor=none;labelBorderColor=none;fillStyle=zigzag-line;strokeColor=#0a0000;strokeWidth=15;" vertex="1" parent="1MbCygZeeLemg4lFdXC7-102">
                    <mxGeometry x="60" width="208" height="30" as="geometry">
                        <mxRectangle width="208" height="30" as="alternateBounds"/>
                    </mxGeometry>
                </mxCell>
                <mxCell id="1MbCygZeeLemg4lFdXC7-105" style="shape=tableRow;horizontal=0;startSize=0;swimlaneHead=0;swimlaneBody=0;top=0;left=0;bottom=0;right=0;collapsible=0;dropTarget=0;fillColor=none;points=[[0,0.5],[1,0.5]];portConstraint=eastwest;shadow=0;labelBackgroundColor=none;labelBorderColor=none;fillStyle=zigzag-line;strokeColor=#0a0000;strokeWidth=15;html=0;" vertex="1" parent="1MbCygZeeLemg4lFdXC7-62">
                    <mxGeometry y="447" width="268" height="30" as="geometry"/>
                </mxCell>
                <mxCell id="1MbCygZeeLemg4lFdXC7-106" value="+" style="shape=partialRectangle;html=1;whiteSpace=wrap;connectable=0;fillColor=none;top=0;left=0;bottom=0;right=0;overflow=hidden;shadow=0;labelBackgroundColor=none;labelBorderColor=none;fillStyle=zigzag-line;strokeColor=#0a0000;strokeWidth=15;" vertex="1" parent="1MbCygZeeLemg4lFdXC7-105">
                    <mxGeometry width="60" height="30" as="geometry">
                        <mxRectangle width="60" height="30" as="alternateBounds"/>
                    </mxGeometry>
                </mxCell>
                <mxCell id="1MbCygZeeLemg4lFdXC7-107" value="getOrderById( )" style="shape=partialRectangle;html=1;whiteSpace=wrap;connectable=0;fillColor=none;top=0;left=0;bottom=0;right=0;align=left;spacingLeft=6;overflow=hidden;shadow=0;labelBackgroundColor=none;labelBorderColor=none;fillStyle=zigzag-line;strokeColor=#0a0000;strokeWidth=15;" vertex="1" parent="1MbCygZeeLemg4lFdXC7-105">
                    <mxGeometry x="60" width="208" height="30" as="geometry">
                        <mxRectangle width="208" height="30" as="alternateBounds"/>
                    </mxGeometry>
                </mxCell>
                <mxCell id="1MbCygZeeLemg4lFdXC7-108" style="shape=tableRow;horizontal=0;startSize=0;swimlaneHead=0;swimlaneBody=0;top=0;left=0;bottom=0;right=0;collapsible=0;dropTarget=0;fillColor=none;points=[[0,0.5],[1,0.5]];portConstraint=eastwest;shadow=0;labelBackgroundColor=none;labelBorderColor=none;fillStyle=zigzag-line;strokeColor=#0a0000;strokeWidth=15;html=0;" vertex="1" parent="1MbCygZeeLemg4lFdXC7-62">
                    <mxGeometry y="477" width="268" height="30" as="geometry"/>
                </mxCell>
                <mxCell id="1MbCygZeeLemg4lFdXC7-109" value="+" style="shape=partialRectangle;html=1;whiteSpace=wrap;connectable=0;fillColor=none;top=0;left=0;bottom=0;right=0;overflow=hidden;shadow=0;labelBackgroundColor=none;labelBorderColor=none;fillStyle=zigzag-line;strokeColor=#0a0000;strokeWidth=15;" vertex="1" parent="1MbCygZeeLemg4lFdXC7-108">
                    <mxGeometry width="60" height="30" as="geometry">
                        <mxRectangle width="60" height="30" as="alternateBounds"/>
                    </mxGeometry>
                </mxCell>
                <mxCell id="1MbCygZeeLemg4lFdXC7-110" value="updateOrderToPaid( )" style="shape=partialRectangle;html=1;whiteSpace=wrap;connectable=0;fillColor=none;top=0;left=0;bottom=0;right=0;align=left;spacingLeft=6;overflow=hidden;shadow=0;labelBackgroundColor=none;labelBorderColor=none;fillStyle=zigzag-line;strokeColor=#0a0000;strokeWidth=15;" vertex="1" parent="1MbCygZeeLemg4lFdXC7-108">
                    <mxGeometry x="60" width="208" height="30" as="geometry">
                        <mxRectangle width="208" height="30" as="alternateBounds"/>
                    </mxGeometry>
                </mxCell>
                <mxCell id="1MbCygZeeLemg4lFdXC7-111" style="shape=tableRow;horizontal=0;startSize=0;swimlaneHead=0;swimlaneBody=0;top=0;left=0;bottom=0;right=0;collapsible=0;dropTarget=0;fillColor=none;points=[[0,0.5],[1,0.5]];portConstraint=eastwest;shadow=0;labelBackgroundColor=none;labelBorderColor=none;fillStyle=zigzag-line;strokeColor=#0a0000;strokeWidth=15;html=0;" vertex="1" parent="1MbCygZeeLemg4lFdXC7-62">
                    <mxGeometry y="507" width="268" height="30" as="geometry"/>
                </mxCell>
                <mxCell id="1MbCygZeeLemg4lFdXC7-112" value="+" style="shape=partialRectangle;html=1;whiteSpace=wrap;connectable=0;fillColor=none;top=0;left=0;bottom=0;right=0;overflow=hidden;shadow=0;labelBackgroundColor=none;labelBorderColor=none;fillStyle=zigzag-line;strokeColor=#0a0000;strokeWidth=15;" vertex="1" parent="1MbCygZeeLemg4lFdXC7-111">
                    <mxGeometry width="60" height="30" as="geometry">
                        <mxRectangle width="60" height="30" as="alternateBounds"/>
                    </mxGeometry>
                </mxCell>
                <mxCell id="1MbCygZeeLemg4lFdXC7-113" value="updateOrderToDelivered( )" style="shape=partialRectangle;html=1;whiteSpace=wrap;connectable=0;fillColor=none;top=0;left=0;bottom=0;right=0;align=left;spacingLeft=6;overflow=hidden;shadow=0;labelBackgroundColor=none;labelBorderColor=none;fillStyle=zigzag-line;strokeColor=#0a0000;strokeWidth=15;" vertex="1" parent="1MbCygZeeLemg4lFdXC7-111">
                    <mxGeometry x="60" width="208" height="30" as="geometry">
                        <mxRectangle width="208" height="30" as="alternateBounds"/>
                    </mxGeometry>
                </mxCell>
                <mxCell id="1MbCygZeeLemg4lFdXC7-123" value="" style="line;strokeWidth=2;html=1;shadow=0;labelBackgroundColor=none;labelBorderColor=none;fillStyle=zigzag-line;strokeColor=#FFFFFF;fillColor=default;gradientColor=none;" vertex="1" parent="1">
                    <mxGeometry x="-605" y="356" width="268" height="10" as="geometry"/>
                </mxCell>
            </root>
        </mxGraphModel>
    </diagram>
</mxfile>